<mxfile host="app.diagrams.net" modified="2021-11-29T16:22:21.751Z" agent="5.0 (Windows NT 10.0; Win64; x64) AppleWebKit/537.36 (KHTML, like Gecko) Chrome/96.0.4664.55 Safari/537.36 Edg/96.0.1054.34" etag="bhHH2yPzeFJrrRUd7_Zj" version="15.8.6" type="github">
  <diagram id="WyoAhag-a4deTEcydQYz" name="Page-1">
    <mxGraphModel dx="1069" dy="595" grid="1" gridSize="10" guides="1" tooltips="1" connect="1" arrows="1" fold="1" page="1" pageScale="1" pageWidth="827" pageHeight="1169" math="0" shadow="0">
      <root>
        <mxCell id="0" />
        <mxCell id="1" parent="0" />
        <mxCell id="4bR_DcgtO-g1k4wcWIeY-8" style="edgeStyle=orthogonalEdgeStyle;rounded=0;orthogonalLoop=1;jettySize=auto;html=1;entryX=0.45;entryY=-0.041;entryDx=0;entryDy=0;entryPerimeter=0;" edge="1" parent="1" source="4bR_DcgtO-g1k4wcWIeY-5" target="4bR_DcgtO-g1k4wcWIeY-6">
          <mxGeometry relative="1" as="geometry">
            <Array as="points">
              <mxPoint x="170" y="245" />
              <mxPoint x="157" y="245" />
            </Array>
          </mxGeometry>
        </mxCell>
        <mxCell id="4bR_DcgtO-g1k4wcWIeY-5" value="UpdateClosedSurfaceModel" style="text;html=1;align=center;verticalAlign=middle;resizable=0;points=[];autosize=1;strokeColor=none;fillColor=none;" vertex="1" parent="1">
          <mxGeometry x="145" y="150" width="170" height="20" as="geometry" />
        </mxCell>
        <mxCell id="4bR_DcgtO-g1k4wcWIeY-6" value="ComputeTransformMatrixFromBoundingAxes" style="text;html=1;align=center;verticalAlign=middle;resizable=0;points=[];autosize=1;strokeColor=none;fillColor=none;" vertex="1" parent="1">
          <mxGeometry x="40" y="320" width="260" height="20" as="geometry" />
        </mxCell>
        <mxCell id="4bR_DcgtO-g1k4wcWIeY-7" value="" style="shape=image;verticalLabelPosition=bottom;labelBackgroundColor=#ffffff;verticalAlign=top;aspect=fixed;imageAspect=0;image=data:image/png,iVBORw0KGgoAAAANSUhEUgAABf4AAAEMCAYAAACV7Ke1AAAgAElEQVR4nOzdUUwb2f0v8G//txKBhyW6jg2+wsEvRosVQtb/l/KvFkcRibrrPlSCVJXois3Ke1mI2n+S/26VtiFcQvpv1I2S/LcK2bQoKdpFqppEug/17ipBKGa1lz55Q4hMBS9mQddg46ulDyE89T7M2B6Px/bMeMYenO9HihTM8fGZM2dm8G/O/M53Dh48+E8QEREREREREREREVFN+JdqN4CIiIiIiIiIiIiIiIzDwD8RERERERERERERUQ1h4J+IiIiIiIiIiIiIqIYw8E9EREREREREREREVEP+W2Nj4/+qdiOIao2t/xCO9DvQsJlAKlHt1hDtPbV8DNXythFVAo8hIiIiIiKi0r5rbHV1cJ3zoAUJLFxL4LlhZUt/bkPTLp5vFvh1hwtd/cDy+TWkyvocqyvRDy9NG7Qwo72NsHUI/7MdbgQWt42s3DjVPi46XOjqb8x9LaHnfCCcS2xPV/BkZtfABpb+3OqPdSu0wQzlHENWHw9at61W93Gtq6H9Zti5uhSzjqG9pobGDhERERERVZWxqX46HGhx7GJ9WsWXQS1li2pE2xUPWhxlVVIDrNAPVmiDFma1dxupReF/qae1FpAw0OIa5s8/y/xbXqx2g7Swwli3QhvMsteOIS37Qsu21fI+rmU1tt8qcq426xjaa2ps7BARERERUVUZOOO/Dq7jjcDiGtZKzlLSUpZo70lNP8N8tRtBtIfV8jFUy9tGVAk8hoiIiIiIiEozbsZ/egb/jIrZV1rKEhERERERERERERGRagbN+K/0bP9GtF1xwSZ9qf8QujI/7GL9+kp+/Xl5aguUg7BwXFuH9JVtQ3Kh59WrkCe3oceDzp4XCp8nbDem04/aa+uHhh4POpsSWNh0oLOnrui2mdUG9RrRduUV7MzsQ0u6rYkE1jcdaBH7b2dGksO7qQ6uHk/md4W3TXt7bf2H4NpcwZMZCOtSSB7Bz7ZBod6C216XqSc1LUub0OTAkbMO1JeVP1mpLQAWE1iYSeTnDS7nuChr/OqRv207M0asUaCmzzSOHdVjUqB7nBlyvGlvr+ZxVpKWY6jwe4qNB1Xn9Q4Xuo7vYuFRHTqLHhda9oWWbdNRb4HzhbC9xly7StM2HtScSzRRvd/MaoNZ1xZoOzY194PRx7GW9pp1DGWp2sc6xo4Wpc87Os/r6b8Xcl7cRWr6GywvVnJ9EyIiIiIisipjAv+ZfP0aZvurKVvQNpbPp9+vNpjYiLbjCSycf5b5wtfQ40HnWQ+gFMxJJLBwPvvl0NZ/CG1X9pXxJVCsd3EN8+ez227rP4TOK3U6AzM6+qHDJQT/Dds2PftCrUa0NIn9JX7BtT1dwfz0rhisdsCWDvJt7kO9QoBL2DbpArb62lvf40FXjxCMmZcEYxo201+upfVCbG9jXj2CXaxde4bn/YfQ1u+CLdO2Orj6HahfXMO87uND2KYGaTszr7+C+mnIgloajwtDx69WkjZk+id7E2WnzHpL95nGsaN6TGZpG2cGH2+a2qt1nKmh5RjKtkHdeNB4Xnc40FnyuNCyL7Rsm8Z6p19BV38jbE3yIK2wAGpqunLHprrxYOK5RNV+M6sNZl1boP1corEfjD2OtbTXrGMoW5/qfay6z7RQe97RPnaEG+x1SE0/wxNJOVu/Bw0JBv2JiIiIiEhgQKqf9Az+hIbZ/mrKGm0by7JZXs9nEkihDvWSWXYNPQ7YFMqmplewnqhDS0+xL5qF2frFL3+ygK5QbyPa+vXVq5nCbLdyt81MuQv37SJVcBab8qzW1EwCO2IArDy7WL/+LDsDEwA2d8tamDqz78850ADhC3uLYxvL5dwU63gFNsV+KjTrV91xYYXx29DjUGjDLtaurWA9UUbFmvtMLT1j0vhxpp6G9prWZ+ppGQ/az+vqjgtLWEwobkN6m1OVWDRbw3gw91yyd85nWWqOea3nEpXj11LnPmNp38fGH/Nm/T2JJgfaxKC//OZAarr8JxSIiIiIiKh2lB/4r4Hc/g1N6bQ3dbAdrgMW/6HwhXcXqae7wkw8zZ8gfNHdebqtEMAT6+14Jf9R+4opZ9sszqigqSk3q3axNp3AjsOBziuH0Naxi/XrZQZNE7vYQR1azh6Spe/RLntcWGH8isemGUFwA/tMlWLbUJWboiUotbfSfZZHy3gw9ryePS6sQukYFLZ5ZyZRkZsw6sdD9c4l1jqfSZRzzOs4H+aMXyud+wxl7D7Wd8yb9fck0NDRiPpK3dQjIiIiIqI9rcxUP5XO7W+2fcLMLocLXVdcBcrUoR76Hn9/vqk8W/355gsdtZnAoX/brCA/j25WRYJfemwmsDzTiM6eOuzMfFP+sbGZwJPpOiGI0yEbx2Xm0LbC+N0x47NM7LO9NiZVt9fEPtNC3Xgw97xuBc9nEkj1uGDrWBOCgU2NsDmKPSFlMI3jwQrnEiu0QQtTziU1fu6r7j42+byT2C0jvR0REREREb0sygv8Vzy3v9leYCcBYLOcHOuFNTTVAQqBmIamfQAsEGzYw18kCy9iKebLtSrxkf2dxC7qew7CtWjAY/qLa5g/vyZ5IZ333IG2nu3clBIaWGH81jftA2BCMNOEPttrY1Jze00aZ1qoGw/mntetYRupRRfajjvQsJhAfY+wVkhFb7JrGA9WOJdYoQ1qmXouqeFzX3X3scnnnT0+UYOIiIiIiCqjjFQ/eyW3vxZmPeYvPJJdf7hR4bHu/MfBKz/jMD9thlVnPSqrQ0MTCjxSb2WNaDsrBOieXPtGyPl71mVCioly8+BXZvzuFJidKah0Oqpy+2yvjUkj2mvAegsaPkv9eLBCOjXzpWYS2HE0wtYkLur7tHiwsaHHg64rh3Ckx6zURUrjQdu5xBxWaIMWlT6XlD6Oi5+rrXDus8I+Nu+883xxW9daCeYf80REREREZDX6A/8dDvULkWopq5nwBc923JHzBc/WoS9f7fOZb4SF367kB2Bt/fq/MKWm15ByONApy6OruKDr4j+QQiNcOZ9VB9e5YkFhlf3gcKDznKxMvyd/7QUz22C4Ql+wrdpe8XNyFh/cxdq1NaRQ3sKSDT0edMn2L4DMEzd6U3+YP37FGwYOB1qkwQxJYPf5TKJIG/RslUBfn5UaO3rHpBZGjl9t7TVrnGmhZTyYdV7PMutcoqHezW2k0jcPEwmsF83/3YgWcZvrexxlj0ct40HTucQk5rehesemFnqP4+Lnamtcj60wzvSdd1T0w2YCyzO7iumUCtdr7DFPRERERER7g85UP8IM/p2ZFRUzprSU1Sc1vYL1cx50XpFGe7axfH5bx2fuYu3aM6R6POi8cij3V4kElmf0tlJoj63/UH4e3fPyPLrbWL5ehyNnPejqyb6aml7B+nEP6gt8gqp+SCSw/LRRoYz8kXwT22CC5zMrWED+PktNP8Py4UMFv+Sa215h0cSWnHrXkMqkUtjGcs6+T/e5C11XXlHYJyosJrB+2CXbnvRnl3MMmj9+sbiG+Wmgq/8QuiQv78ysiOkmtrF8Hmi7kpszeWdmBcvwQHcCCZ19Vmrs6B2TWhg5fjW117RxJlfoGEr/X+14MOu8nqV9XxTbNj317mLt0TZa+hsLLGoqJaQGsnXAmBRvmsaDlnOJWcxvQ9WOTS30HsclztWVux6XOj9Ue5zpO++o6YfnMyuYX3TgyNncfQBsY/3pPjRAvpDyNtZnHLD1VHDRbyIiIiIiqrrvHDx48J/a3iINWpYKTGopS2Zr6PGg8/B2xRbeJCKiCmpy4MjZRqSuq1srpKHHg86mRA2vfUBERERERET08tIx41+YwbRWuqDGskRERKSXTdOivo1o6QHWrzPoT0RERERERFSLdKb6ISIiIsvocKGtY1dVIL+hx4POnjohLZKqmwREREREREREtNcw8E9ERLTnpFPpZV9JTT9TNdv/+cwK5g1Y14CIiIiIiIiIrEtHjn8iIiIiIiIiIiIiIrKqf6l2A4iIiIiIiIiIiIiIyDgM/BMRERERERERERER1RAG/omIiIiIiIiIiIiIaggD/0W0917AhQsX0Nte7ZYQ0V7Gc4l1+EevYnb2Kkb91W6JyBnASNCX97IvOIKAswrtISIiIiIiIqKa8F09b7J3v4dBbxS3P55D0ugWVZQd3e8Nwhu9jY/n5FvSDq8YpGv3tgNLSxVvHVEl2bvfw2D3gZzXtuaUjo1aZofdnkTS0E1+mc4lzRi4+z6OPr6KU1MbFf1ct3sDsVipcp04Kgb8/Uc7gfCCQfXq4UNwIggfgHhoPO+38TgQHJlAAHGExscRipvRBiIiIiIiIiKqVboC/y+HJUSXgPZ2YClavUBdOhhr2QBsey8uqJjGvPTgMh5o7cYidVekP8zcNqtp78Vg9wELb4twk677gEJ/p/fT1lyZNyPb0XuhF3hwGQ8MHVrWOJeU4h74AHcGmgr+fnWq0sF8tToxOvsWMPY+xkoG6BfwOPwW/H4g/LhU0F9LvRo5AxgZCcAZmcTwZESxSDw0juEQ4AtOIDgyAjD4T0REREREREQaMPBfxNKDy7hc1RbY0e4VZmAf8LbDPpe03hMWSw9wWdpJ9m68N+hF9PbHMCYuv4QHlx8gJ1xq78Z7g4N4DyYH/03fNuuw2+3A1hzmrBuXzpDPmm/3Wj9/TvXPJaXFpj7EsSnxB/cJ3L3TicfvfIgpU2a7V0947H0cq2oLfAiWCPpLRSaHMRmcQHAkiPjwJEq/g4iIiIiIiIiIOf6tzd4O74EtzD2Yw9YBL9rt1W6QRSTnEF4CDtgPlC5LquyVvtxaWsJWuxfZUH87vO1b2NqqYqOszBfExMQEFFLIU5U4AwH4EMGkiqB/WmRyEhH4ECiR9N8ZGMHExARGuDgAERERERER0UuvrBn/B/JygivMzha198oWtlRIyyGktUkq1CFJwZH+RXsvLviTuB22YzC3YswpzsgW6shtwgNES5QpXJ9RbbiNsH0Q/mT+7HV7uxcHtqJYWloCtrrhbbdjLif5eJH0J/ZuvDfYjQMK/Zy3LwruN6X+ALA0h9tzc2XlQVczHkqy22HHkvAeux3d3YPozm9sRbetvfeCuC+R2TdpOemJtLTXgHGmtG35Of27MXihW7m9ku1Ts9/U9UM7ei94kZyzoztdYGsOc8nuTL/ktSGZRLK9G5lJ/+1etG9FhfdIb4yp7l+Fvuq9gAvZ1ub1sfptU3su0XccqxKZxHhoBCPBCUwggklDZ4wLqXCka+SuTn2CxwVK+0flC+ouYOzYJwjnFHoLs29v4p0/NeHOaKfkF5uYynn6IP+zMXoVs4rlFcrm1VdGvasP8c6ph5BXJWyvfBud8PmciIe07ocIQqE4RgIB+Aq+N3tjwFm0HBERERERERG9DPQH/g90o9c7h9uXs8Go9t4L6L3wniy4JQbAlh7g8mVJuK33AgYv2AveKFDbhkH/HG5ffpBpg737PQwOvgcUakMmqpYNtmUnCy/hgTS3i5jaxew29B4AthSCge3eA1gKi/0b3UJ3XrqfJOY+voxk7wX09vaiPdOXdnT3duNAzmdJ2rClfr/Z527jck6kUgjWHngAnWmHDBgP9m7424GtuaVsG5IHYG/PD5oL29arGOw1ftsEB7oHcaFbCAJflgT67dK7CZraC83jTM22Jec+xuU5yefaiwWXte83Vf2AdnTbxTrFILc3ehuXHyTF3P3daJ+T1r2E6FI3/HY7sJREu7cdW9E5JO3duR+uun+lx7zCDcYCSm+blnOJ1uNYGyFXvBOBkREEJyYAlSlmihOD3uFPcGwsnStfWNh3oBVYVSq7+hDvHMsGyP2jVzE625wfgG89gTtvP8Q7x97PlHUPfIA7dz4AMmUXMHZsIad+jL2PsZy7CGnSssikMVKmsd6xw5gd7YTf/VC2ALCwiHB4THZjw+mDzxlHJKI9WX88EkE84IPTCUDx7cLNAV/AiXgoxKA/ERERERER0UtOf6ofhRmoSw9uY27rALol02zbe8VAsyxwJZRtR6+KxVMLW8IDWRuSc2Es4QCkmUvs3X6FNiQx9/FtzJWdIkRDG7CEB2rbYG+H94CwKCgAJJeiBdP9ZPryvW7YAbT3DqL7gPyzJG1Qsd/Q7kU7thBdkoeBCz/VoYb28dCO3gsXcEH6b7AbyJuNrtyupbk5bKEdOWngTdq2rC3M3b6cP1NdxWcptjddXsU4s85+A9T1g3zBW6W255c/4G2HHXbY7YXKa+1frdRtmxZqj2N94giND2N4PIS4Ael/3AMnhED+mHSB3A1MnbqKqVWFsljAmGxWfHjsKqZWmzAwIA/C55eNTT1EGE1wt+pvsynCjxS3Ib3Nj+U3DJxOOBFHXM8ivfE44nAKgf9CRULjGB4exjhXASYiIiIiIiJ66Rmc4z+JpeiWmIIFgBhg24ouKQTExLI5+bqNY7enI+TiArllBuUMacNSVHXg1d7uxQFp+eQSolsH4FVM9J8U1wHoxuCFC+ht38LcbXnQs1gb5PsNwFYSWziA7sELuFDWzRkpPeNBmDl9+fJl3J7bgmLAtRil/W7KtkkshfUv/qtjnGbHGSy031BePxSzFMXSAS/a29vhPZDUlpbJqPOAKdum5jhGJm9/oX9FA/rxEMbFwLAvqDcXfDP8R5uA2GZeepuCZcNPkT9pfgPhx5uAuwlulZ/sdjdrbKvZxG3wH5akBxK2eXXqUd42O4tF7UsSbhiUVwcRERERERERvSzKyvFf0AE7DkCSUqRAZK7Q62bYSlZ/9U/1bRCD9Ad6ceGC7Ffd8tQnouQcHsx5Mdh9AFtzDxSCkuLMcKU6JZ+b2W/JOXz8wC4Ej9tl79GbbzzdVJ3jITkXxlJ3L7q72zGnMAs6f+2CrJzSJm6bFqrbq4UF95vxlhBd6kVvbzewJBwLSt1oSv+areRxDCFVz3AZn+EMIBgQ8sXoSTmTthrbVFFKnKXf+hZmZ98qWKYVUHETwZpiUw8RHngLR/2fIBwG4D6Mo62beBzeUH5DPK6cqYeIiIiIiIiIyEDmBP63kpCGuO1iPm45YaZyZYKGB+zSWxHVoboN7d1Cio8CixxnFjaVsnejt/sAtra2cKC7F91L8kVEt5DcAtqTGvKFLz2ANE15dl2EbvR2L6mfdS9vqu7xIKQ9udDrR7d9KW/B1V6FnO6ZvO15VZmzbWppbq8WlttvxluKLgHt7bI0QVmm9q+ZSh7H5fAhOBGED+m8/+WFn1vdTQAKBLczNhFbBfwx6VoAtWYBj8NvYfTtE3CHH6J14ARaw58oLBwscjpRME1/UcXT/BARERERERERSRmc6keeVkfIUS/k4y5QVpJ6xpyZwwppbCpOW1qjdm97gZQ8Qn+25yUob0fvoLAI6McfPxDy9Q/2yj7LiNRK5a6LoG08KFcxJ2xfb7ekDjvsdmhKpZTPqDUf1DCivVpYYL8ZbSmKJWTXwJC3qbL9axQ1x7E+vuAEJiaC8ElS/einJUWPUiqc2hOeeojV1k743eKivo+Vb3LE43HoDuCnbxgUWSDAGRjBxITeFE5EREREREREVEv0B/4PdGPwve6cQKCwGOUW5uay4balBw+wdKAbg7KcG4oLVy5FsYR2+LultdrR/V55wa/kXLhIG8qoWGsbIF8ENT0TO6dVwoz+AjOZt5L5wfvchVeTmPv4gcJnAcm5B8LioRfy+7O99wLek/S7vfs9XJDtX6FgN7oPlF6AtRBN40FREnPhJeBAN7JrERe6qaE8dszaNvW0tVcL6+43oxVbrFhv/4o31vyy81q7GauQ5FN7HGuSWchXsrivAW2NTT1EuPUE7ozmLmrrH30fA63ysp9garUTo7Nv5QX//aNXcXeg3Lz9wiK6/rdP5NyI8PvliwabWG/sKR6vNmHgzlvwrz7EVP6CBoJIBJGyAv/FFgb2ISAG/J2BAMpYu5mIiIiIiIiIaoD+VD9LD3A76cfghW7piwrBOGFx1vbeC/n5xi/L840v4cHtObw3OAhptUsPbmPOP1jGjH2hXb0XcnOeb83dxgMMlpiJKiyUmm1OsYCjnjY8wJy3F17xZ3u3H+3YKjg7O7kUxVZ3N/zddizNQbxxsIQHOX2Z7sdeXLggbW8Scx9fxlL3exiUJ/rfmsODOWlzw5jz9sr2b3o7Pi5jJrWW8VCoijnMbbWju/c9dN8WUqEk5z7GbeRv19KDy3jgvZDpX+FFs7ZNPU3t1cLK+62C9Pbv0oPbmHtvUOG8tmTAuCh0LrFrPI61iYfGVc3wdw98gDsDTTmvDdy5igHx/6tTV3FqKp3aZwFjx4DR2dzc/atTVzGG9/F2Ti0bmDr1PsIDH+DO7NXcD119iLEprVuULzx2FVN338ed2ROSVxcwdmxBYVFhAGjK2Tah7Cd5ZdXXu4GpPy1gYLQTq4+fFlmvIIJIBAj6fEAkonLrBD6fD4hMovCuFOr2+cB1BIiIiIiIiIgI3zl48OA/q92Il5sQ9PNGb5ueV56IiEziPoG7dzrx+J0PC+f3BwBnACMjAcQnhzGpNvav4T3OwAhGnCEMq66ciIiIiIiIiGqRwTn+SbsDsB8wa30DIiKqBP/ACbSGHxYP+gNAPIRQBPAFgyrT8fgQHAnAGZlUcaPAh0AACIUY9CciIiIiIiJ62THwXzFKubrFnONbc5jbW6uQEhFRmv8tjPo3MTWlvKivXGRyGJMRH4ITEwgWi/77gsKizJHJkjP4hYV9g3CGiqUDIiIiIiIiIqKXBVP9VEp7Ly4oLdK59ACXK74wKhER6deMgbu5CxmHx97HWKFFfQvxBTERFHL3ywP7vqBwUyCiJSUQEREREREREZGIgX8iIiIiIiIiIiIiohrCVD9ERERERERERERERDWEgX8iIiIiIiIiIiIiohrCwD8RERERERERERERUQ1h4J+IiIiIiIiIiIiIqIYw8E9EREREREREREREVEMY+CciIiIiIiIiIiIiqiEM/BMRERERERERERER1RAG/omIiIiIiIiIiIiIaggD/0RERERERERERERENYSBfyIiIiIiIiIiIiKiGsLAPxERERERERERERFRDWHgn4iIiIiIiIiIiIiohjDwT0RERERERERERERUQxj4JyIiIiIiIiIiIiKqIQz8ExERERERERERERHVEAb+iYiIiIiIiIiIiIhqCAP/REREREREREREREQ1hIF/IiIiIiIiIiIiIqIawsA/EREREREREREREVENYeCfiIiIiIiIiIiIiKiGMPBPRERERERERERERFRDGPgnIiIiIiIiIiIiIqohDPwTEREREREREREREdUQBv6JiIiIiIiIiIiIiGoIA/9ERERERERERERERDWEgX8i0sTWfwhdVw6hraPaLSEivXgcE5EReC4hIiIiIrKu7xpbXR1c5zxoQQIL1xJ4bljZl1kdGpp28XzTwm3ocKGrH1g+v4ZURdulQ4cLXf2Nua8lOAbVa4RN/HJvO9wILG5Xtzmq1ND4NYuW48KSx5Bx58mGHg86D2/XwDlBuMbanq7gycyu7Hd74zje2/vCCucdK/z9UCU8r2um73jTei55icckEREREVEVGBv473CgxbGL9esqvjRoKVtMkwNHzjpQL30tkcDy9DZSm/Jgx17TiLYrLmD6GZar9iXJCm0w0OIa5s+vZX609R9CW1MV27PnbCO16IKtA0g9tWawMFeNjV+zaDkuLHcMcR9rt9eO473GCmPSCm2g2qflXMIxSURERERUaQYG/uvgOt4ILK5hreQf9FrKFiHOPE1NP8OTRUnd5zxwdWwjxS8WRIZLTT/DfLUbQURl4XFMREbguYSIiIiIyLqMC/ynZ/BPq5g9qKVsQY1o62/EzswKlhelr+9i7dozrBV6GxERERERERERERFRDTMo8F/52f4NPQ7YsI3lvNzFhdn6ZYuP5eWlbkTblVewM7MPLT11mTLrmw60iO/bmcnmS27o8aCzKYGFTQc60+UBANt5eWUbejzo7HmhkG9W8ujzYvZnm7RI/yF0ZX7Yxfr1lby+y9s2hTaop68N+bm/C5QzvL3a9oUmTXVw9Xgy+79ovR0udB3fxcKjOnRWsx9UjbPc13P2NQAsJrAwkxDz8CqVKbxN2vshv/6dmRWsNXng2lTKT17K3hu/BdsNKOwL9ecoTePXZOr7TOeYVLOPNajv8ag+l5S+tmg8Ng05hpQ/Z+8cx1nG7gtxfSGHMFM553yYTh2oa80KE887qo9j848LxfSK2EVq+hssL+o47+i4bmpiRv8WGB/C2MvfRsOvFxrP67b+Q+IxiMzYT8u5XohKH29aziXax6Tq9prSD/r2sSqq26vvHGXsNZaIiIiIaoUxgf+Kz/YH6pvqgMQ2dlSVFv/IXVzD/Pns59r6D6HzSl3eF5qWJrGc+Ae27ekK5qd3xS+QDtikAZUOlxBwPp/9A9zWfwhtV/bp/NK6jeVMGwsFaxW2LVHNNojljiewcP5Zpg0NPR50nvUAOW0wo70iw/cFgM19qC/0Rf6KwsKBDgc6q90PqgltaJhZwXzOF38huFw/DbFd0vEA8biQLe4qp7UfFtcwnzknCF962xzAjq4+2IvjV+2+EF5TfY7SOn5NoaXP9IxJtftYA4cDbYfVt1fdtUV7G8o9hlockFwj99pxnG2DsftCeCrwef8htPW7YMu8XgdXvwP1OdughYnnHdXHsbnHRYMYEM5NrwjY+j1oSEiOV9Oum1qZ0L/Tr6CrvxG2JnmAVFjkNjVd4EZBNf8ugRDM7+oRAtzzksB5g3wtLFXHm5Zzib4xqaq9pvSD1n2sger2aj1HmXGNJSIiIqJa8S/lV5GewZ/QMNtfTVkVNndV/YFq6xf/IJZ9mU9Nr2A9IaQMynk9Z4GyXaQWi8xUVJh1I9Rbh5aeEkEVA2SefKhiGwT5bXg+k0AKdaiXzKoytb2m7AvlGVOpmQR2xC+BeeWr3Q9qdbwCmwHiwLMAACAASURBVOL4NmI2uMZ+mM495taurWA9UVYDNKryftO4L9Sfo7SOX+Np6jNTx6QGKs8lWq8t2mgYk3ltMOoYssBxbNK+yLx+zoEGCMHrFod8G8ymrn+tcByjyYE2MegvD9qmpuUBbHOum9qZ0L+L/0AKdbB11OWUTR8DqcX814y/zusZD7tYv/4sd3a/0t/QVf6bNktNe03qh8WE4vYq7WNttLVX7TlqT15jiYiIiKhiyg/8p2fwz2iY7a+mrGGEP6Z3nm4r3CTYRerprviHsJHEepvq0GBovXJ1sB2uE7+IVqsNpTU0pb8gV6O9JtWr8qaTVHX7QUFiFzuoQ8vZQ7JUCOZS1w/WUZH9Vul9oWP86qOxz6o0JtWRt7ca1xZB3pis2P4s0oaKHsdG7ItdrE0nsONwoPPKIbR17GL9unUCX9n+LaKC+72hoxH1ZQU9UeZ101j6+3cb6zO7qO9xSMaTcAzszCRy0rVU/DpfrH/LmnBThb8ny2lv2f2gdM5Q2scGKdheNeeoWrrGEhEREZEZykz1U/nc/jnEP2bVfJF8Ln+cOfP6C4Mao8BRh3qY+djsPmHWmsOFriuuAmXMboMWVWxvGfsiP29qlr4vgBbZb5sJPJmuE778dcjaoivHtT47Zh6DhjJxv5m4L4wfv1po7DOLjMmiZOeSqlxbZKxwDFWlDeXui80Elmca0dlTh52ZbyqQXk2/6h7HosSuyvSKFmmvBlra+3xxGzs9Dtg61oQbIU2NsDnks6jNvc5XpX9N/5tWO7P64flMAqkeV4l9rJ3m9pY8R9XgNZaIiIiIDFVe4L8Kuf3TdjZ3gQ71X0IamuoAhT/YG5r2ATApYKHhS7I+L7CTALCpNydxpVWxvTr3ReGF3MRctbpYaL8trmH+/JrkhXRucAfaerbLWpBTrfqmfQDM/5zymbzfTNgX5oxfLXT0mQXGZFGyc0lVri0yVjiGqtKGcveFmL5mJ7GL+p6DcC1WYm0V7ap/HItUBn4t016VNLd3M4G1RQfaDjcCi9uw9Qh513PHjnnXi6r1r+l/02pjbj9sI7XoQttxBxoWE6hX3McVaG/Jc1QNXmOJiIiIyFBlpPqpYm5/pPO0NsLVU+pxbeHR9PrDjQqPKJuVoiA//YI5sz/NTSdhvGq0t3gqjJ0CM0TT721oggnjw7x+KH+cVTK/Psdvqc8rb1/oH7/FjwstZY3os2qs+aBEfi7Rdm0x9RpQ1ZRuVjiv67nON6LtrBDMe3LtGyEX9lmXBc9FZl2HtHm+uK1yPQFrtFc9fe1NPd0GOhxwNYkLvj6VB13NOi6q0b/VSylWmPn9kJpJYMfRCFvBfayFnvaqOUfV0jWWiIiIiMygP/Df4VC/EJ6WsqoJ9dX3eGSPzdbBde4Quq5k/zhOTa8h5XCgU5bP0pDF/BwOdIoLb+XWK1vLYPEfCjcq6uA6VyzQIAQzbMdl9Xdkt+P5zDfC4l9X8uux9R/CkZI3Rkop3QYtTG2v2n0hbc/mC8DhQIt0DGWCaIW+UJXab6WZ1g8axllDjwddsv4CkHk6p9xH2tVI38DLXXgzPfvMiE/YG+PXnH2hf/wWPy60ldXSZ/r6wdh9DED1uUTTtUXXNaC05zOJIm0oo2KtbTDrODZjX0C+GPAu1q6tKWyDXkaOSb3HscHHxWYCyzO7iqlKco9j866b5tDZ3vQCsGddBRd8Ned6YXL/6vg7Sj0rHBcabG4jld7HiQTWy1nfQkd71Z6jzL/GEhEREdFepjPVjzCDf2dmRcXMFS1lNVpcw/z1XRw5ewhd0tcTCSycl+ap3Mby+W3Y+g/l57M8X2Y+y0QCy08b0XlFGt1QepR3G8vX63DkrAddPdlXU9MrWD/uQX2B6lPTK1g/51Gof1usfxdr154h1eNB55VD+W2b0b1lGtqghYntVb0vJBbXMD8NdPXnjqGdmRU8mdnF85kVLCC/ranpZ1g+fKjMGVZm9IOGcbaYwPphl6y/xDrOlzpehcXhWnLeo2dhzG0snwfaruTmmt2ZWcP6YWO+vO+J8VvWvihM9/gtcVxoK6uhz3T2g7H7WNimhU2HuvO66muLvmtAaYWOoRUsw4PiCS/2wHFs+L5I35DYxrL874TrdThy1oWuK6/o7IcsI8ek3uPY6OPi+cwK5hcd+X9zYRvrT/ehAcKMcPOum+bQ114hkNvSU2zBV3OuF6b2r+rjTU7ducQKx4V6u1h7tI2W/sYCC4dro769Ws9R5l9jiYiIiGjv+s7Bgwf/qe0t0j9IS38RUF9272no8aDz8DYXw7IA7otaI5w7bE8VAs1EtEfwOCaiPazJgSNnG5G6bs31P4iIiIiIStEx41+YWbJWuqDGskREaftQ7wCea8g1T0RWw+OYiPYu5YWbiYiIiIj2jjIW9yUiKpdSTm0x523ZOXWJqDJ4HBNRjelwoa3DiLUNiIiIiIiqR2eOfyIiA3S8AltHY25ObkDMG88v20R7Ao9jItrz8hckT00/42x/IiIiItrTdOT4JyIiIiIiIiIiIiIiq2KqHyIiIiIiIiIiIiKiGsLAPxERERERERERERFRDWHgn4iIiIiIiIiIiIiohjDw/5Laf+4jHLn3Edxd1W4JERG9jHgdIqoxzgBGgr68l33BEQScVWgPEREREdFLrsKBfyf2uYr82vUGXr33KzQXK1MTSvSD6V7DfjHQsr/rNYPrrva2mYnj92VnH3iEi3fPwG5wWaokHseCap+reR3Sh+OXrMiH4MQEJkYCQDye99t4HAiMTGBigjcAiIiIiIgq6buV+6jX4L53Crj2c8TWjKt1/7n82YIv7v0Wf/9L/hcPa1DRD12ncOScciDEmG37Gt/On8L+LuDb+a/LrEvKnH1sDRUav+uf4+9nP8cLaaEi4+Hbaz9HbF5H2SLlitZPxvPfxMXRQMli0TE37ocr0J6axuuQgNehvYnXIQLcAx/gzkATVqeu4tTURs7v/KNXMYpPcGxsoXINcgYwMhKAMzKJ4cmIYpF4aBzDIcAXnEBwZAQYH0fIqqdHIiIiIqIaUsHAv9GcaL7+SzSv3cWTk5KggesNvHrtl3gVVg66qLGBjXP/iQ3pl3sDt+3baz/Hk/IaSGURAjj71z/H30+mAyzCmH71XjNiJ+/i25zyX+e/1nUKR859BHdeUERF2fm7eHLybvb3rjfw6rXX8K18zJH5wqdx6djp7M/uMxi6E0D0neMIx6rXLFKD16Fy8DpUbbwO7WWtA8fhn/oE1b0f7EOwRNBfKjI5jMngBIIjQcSHJ1H6HUREREREVI69m+O/6wdobvkasWuymYJrn+PvJ3++x4MtBax9jti9Dew7+QPsr3Zb9gpfEBMTE1BIOVtV+378Bvbja8RyZlXGsXH2Lr7Fa2j+sYpn4ee/wMa6yjQZWspalUX3Jb3EeB0iNSx67uJ1SAed+9IZGMHExARGVOS5UVV2dROr6MTbA83aGmIwZyAAHyKYVBH0T4tMTiICHwIl+kJLnxERERERkTIdM/4lM8Tkj4Ij/ch4eqaXWFZa4NxHOJL5QWE2oZLM4+DZ8vtcTgBqgiqvwX3vCF7cc6L5pPgFaf1zbKy9gWbx0factAUuJ5pP/jLzuyyF2Wvi9jav/xZ//wuEmZ8t2d9l6zWoH4oo/ai+QhuKfW7XKRz58Qb+/pdmvJrzKL78Pfq2LT81Rjn9q8SH4EQQPgiPmGe/k1ph/Dqxv6sZmP88b3vT6S/cXUew7y/xvPYpebG+UbqQjrJyWveF2n2sumxkEuOhEYwEJzCBCCYNni3oHY2hzy95YfUGbp26gaRCWfvAIwwNeCSvhHD/2GlEyyyrpa3+2AncmgL8dx/C35r9XXLqBG5NLeeVz9m2Im3QUrZ6rHAc8zokx+uQHK9D5ZaV25vXoWyQ2xkIwBcq9h61ZRcwNtaEO6PqZv37R69iNOe8voCxY9n3+UevYtT9EO+ceohCD5rlpxFywudzIl50e5REEArFMVJ0+7T0GRERERERFaIj8P81YteO4Mi517Df9bnsy6awWN+319JflL5GLJP+QJKbVkuuVvHLqvwL3Yv5r/Hi5Btw30PBL3HSdjW3iKkYXG/g1WtvYP/8b/HkZFys/wfY/xexjrVm7OvK/7K3/9xHBT9r38lf4shJ4UvnE0ngZt9aur0G9EORbXPfO4X987mpJvaf+0j2qL60Dcg8Ul9Uyxt49cfCzNX0F/99P/4VXr32KyATaNC6bUqpBdL961QMYJTu31y+oDgbLx7C+HhIFpazwvhtxr4W4MW8cvDj2/mvga5m7AOKB1y6foDmlg1szKsIPGopW4S6faFlH2sbD0KeYCcCIyMITkwAKtMLFBdA3+xNeMOncelYKPOqdzSGoVlPftC79Qz6jt7ArWPZmwLe0Rj6ZtsQlqfn0VJWI/vAQ1wcEAL9l9KBfncb7DFp0F/ctlU1bdBSVi1hXxWdsKl4nJZiheOY1yHptvE6lIvXoTLLFrH3rkNCoNsXcCIeCpUIYGsoG36EqdX3MTr6tEhO/06Mzr4F/+pDvHMsG9T3j17F6Gwzpt75EFMxIPx4ARhtQisglHGfwN07JxAbex9jYQBohtsNhP8k+RynDz5nHJGI9v0Zj0QQD/jgLHjvVEufERERERFRIfpy/M8/wbd4Dfu7nNiQfNHKPDZu0CJs+378K7x6sll5Ybe1zxG79xpePfka3PckgYP5u3giT7sA+eKBG/i24BdPWWAi/f57n+NF1xvY33UX3+Ztn8KMuzV1s+Q0cb0B98lmvLiXDfrsPyd+WZVt87fXfouN67+E+9wTxf5QR54CAHjxl8/x7clT2NcCQMfMUOXUAtn2Np98DRt57VXZv74gJoRIC0LFFo6r9vh1icGUAgEjgRP7XJD0sWycAxDG6n8qBBu1lNWq9L7Qso/1jYc4QuPDCDkDGBkJQoi7DENv/N87Kga7x0I5r0fHTiB89yH6Rj/DJenvFJ4ESJf1DwQQ1ltWs5X8YHxsOeez7ANn4EUI91W0QUtZ9cR9pfFdqlT7OAZ4HRJf4nVIgtchHWW12nvXofTitmqoL7uBqT8tYGD0BAbcC5hSuDHrHjgBPxYwJpvJHx67iqm772NgoBNTYwuZ1EFuNxCOAW5/J1oBtB7tBMILgPswjrZu4vGqpBKnE07EEddzHyceRxzOIoF/bX1GRERERETKdOb4/xobeTl+hcfGX9z7woAvdSWCLaIXf/lPPDn5czyRzn7sOoUj936FZpcBjZBa2ygcQJmXz9gzQjOar32EI/ck/669AeTM2BNmBr6Yf6LQtji+nd8Auo6YkodZSHGhVTq1wBOFMSK2VwxG5FDRv87ACCaCPuGL4nCRYAsAq4xfbb5G7OTPxfEu/rsGuO99hFfz8jBrKatRyX2hZR/rHA+ZIiGMDw9jPBSHL6g3D3AAXj+QfPyZQkqfZUQfrwD+N+EtWY9Y1u2B3dCyRYRvlJiB3wbvUQ8Q/kwhTY+8DVrKWoU1jmNeh3gdytTM65DOshrV3HWoDOFHmFptwsBAp8Ivm+E/2gSEnyqkAtpA+PEm4G6CGwBiT/F4tQlH/c2Z94XDC9nftzahFRuISa45Tmc52yrcMCivDiIiIiIiKkXfjH9kUxxkZh66jmB/S7EZjOrtP/dRJm/r/nOnsL9kCgXJ7EgxhYLyDC31n+/Oy60sMOLLuDrq8y0XmrFXfCZfNQipBdByCkfunSpcBiVSCygQHhsPwBkYQTBeevZ3VcevGLzb53ICBT8vjhel9v38XcTmX1OXh1lL2bJo2ccGjAdnAMGAMGVQT7qBtGRsWdPrBbUKwXGldQHKKquLB/ZWAK03cXH2ZuEyAJKayloHr0Nm43VIC16HeB0q5zqkT+6s/9x7wU1wtwJofQuzs28VeH86vY8Q1G91NwEA3K2biI09Be6cgN/9EHA3A+GH+TcQ4nGNadqIiIiIiKiSdAf+sfY5NubfgLvrNWD+a+w/+Qb2zd81YMZhM/a15C5qpylNQLpdOj89d1E9KTG3rgUV+uKufuHJStnAi3UAa8ppMMoSD2F8OARnQOWie1Udv0I/7G9phtL+2d/1GrCev+CjkhfrG+ryMGssq5+WfVzOeMhdNHO4+NTakuzuNiCcH+S3u9sAaAj+r66oD4xrKavLCpKrAGKnc1MVlV1WC7Ny/It4HbIMXofA6xB4HaqK8CcYC1/F6EAnxnJ+sYnYKuCPfVJkDYCs1dgmcLQJbn8T/KsLmIptAqtNcLc2A0ebsPp4M/9NTif0HeFimh8iIiIiIjKVzlQ/AmHxtzfQ7BIXo5s34kv0BjbOSRa1u/Y10HVKw6PhQk7aF+vKC9apea/yI99W9DW+nQf2dR1ReAy92OPr1WJu2gcAkhQLPgQnJsRcy8qqN36L9UOxtBn59rU0A+tF0n/oLKufln2sbzz4ghOYmAjCJ0mxoF8I0TBgP/qmQhqbYulvCpSNqQnmaylbDh2pilSV1ULIgz08XOSf3qC/iNehauN1KO8TeB0ypKx+1rsOOQMjmJhQlwpIS9m08NRDrPrfwqhf+qqYzsd/GP5Cb5SIhRew2tqJgaPNWH38FDHx/f6jx+Fu3cTjcO75LB6PQ3cAP33DoMgCAXr6gYiIiIiIcpUV+Mf8F9hYb0bztVPYL375L0z4/f4fv5ETHNjfJV/8Tf4Zd/H3exvYd/KUJF/ya3Df+whH7p3K+6K2/9wv0dzyNTb+oieUVOgLoBPN1/M/Sx+d/VDAt9fu4tuWN/Dqudz3p/shZvSMxqJKb9uLv9zFxrowAzF/3xmQ+xdAJtg4HkLcF8TExAQU4y5VG7+SfrgurS89zlSOX9cbaFYbnNFStkxa9rGm8ZDZl5L9a0B7o2OnEW09g6HRQM7r3tGH8LeGcF8+A771DIbunsm5USCUXUF4qoyyJkhOnUZ4NYC+2Zt5AX3vaAxDA226yloKr0M68DrE6xCvQ3rK6rsO+RAQg9fOQACFbwNpLSsRe4g/5SfyR2zqE0ytdmJ09q284L9/9CruDjRLCm8ihib4/U2IxYQgfyy2Afg74Zfl9wcARCKIlBX4L7YwsM5+ICIiIiKiHPpT/QBIByiaT6pbjO7ba7/FxvVf4tV7b0heFfIiF3vvi7/cxUbXL9F87SPsu/ZzxOaF9+w/9xHc92RfeNc/x99Pqns8Xfmz/hN/x6/w6r2PZG3/OWJdHxkSdNHbD8qyfZGTn1ZVPwgLN2a/9imlltCm9LbFsXH25/j2x/l9jPXPEbtXxofLSdIuBJQLVGn8Cp+9cfbneHHuo9z6Cu631/LHOoAXOYts6ilrBi37WNt4iIfGy5zhrySE+8dC8I7GcvPbr97ArWM38mflh0/jVuwMhmbPyOo4nf9kgJayplhG+JQb0YFHGJqVRW1Wb+D+lN6yVsLrkB68DvE6xOuQnrJ6rkMRhEJx+AJOxEOhwqmfNJfNJcz6P4HWnFc3MHXqfYQHPsCd2au5b1h9iLGc87qYGqh1AY/TNxHCTxFGJ/yrm1hVaGskAgR9PiCipaWAz+cDIpNFFsAW6vb5wHUEiIiIiIjK8J2DBw/+s9qNICIiIiKiPcQZwMhIAPHJ0otZ63mPMzCCEWcIw6orJyIiIiIiqfJS/RARERER0csnHkIoAviCQZXpeHwIjgTgjEyquFHgQyAAhEIM+hMRERER6cUZ/0REREREpIsvKKxhESk2i98XFBa6jkyWnMHvDIxgJOA0Kb0fEREREdHLg4F/IiIiIiLSr0hgX9WNASIiIiIiMhwD/0RERERERERERERENYQ5/omIiIiIiIiIiIiIaggD/0RERERERERERERENYSBfyIiIiIiIiIiIiKiGsLAP5EJvKMxXJyNoc+/N+olIiIiIiIiIiKi2vFdY6trRcvQbdiig1gIrxpbtUy9/w/o9M5h4dan2ClW0PtrfK/v9dzXkp+Wfh+RbgF4xcC892gACIcsXK8PwYkgfPKX4yGMj4cQ11WnE4GREQSceZUiND6OkL5KK8cXxEQw2yORyWFMRqrYHqJiLD1e6+A650ELEli4lsBzw8qSQOgz29MVPJnZrXZjiIiIiIiIyGIMDvxbUPQ3+Nul7I+2vi/gsVevOSTwjspmra/ewK1TN5CUFvLfxMXRgOL7o2Nu3A/rLKulDbqEEA3fhNcPRB8bFfQ3s151wULfB7/Du9+Xvbj2CJd+9kh2gyCO0PgwclroC2IimHcnwHqcAYwEfYiHxjFu0B2KvH776lMMffjUsvVaoQ3cNg0ikxgeFv7rDIxgJDiCgFVusHU40OLYxfp1FYF8LWWJiIiIiIiIqKTaD/yTxQTQN3sT3tUbuHUsHWRvg//uQwzNenD/2GlEc8qH8l/z38TF0Rj68gL6astqbYN20TE3LpUuZpl6S/F98Du8e/ARLv1IGuRvwg9//x+4+HsoBP/3JqfPB2c8ZFDQX+ifAKT9Jrx26/dKN0yqXa8V2sBtK0c8NImQbwQ+nxOhqkf+6+A63ggsrmFt08iyRERERERERKQGc/xTRdkHzsCLEO7nzKxfRvjUaUQRgH+grXQl4f9CeFVMd6OjrCFteMlEPvwFhvICk5v465+fAq7D+NeDVWqYwZxOA59K+P5xBFybCH0o7bdN/PXDR4i7juPdnzRZq14rtIHbZgg149gZGMHExARG8nNyGSM9g39m29iyRERERERERKRKGTP+X4fn4q9hk7yyE/4NUgVK2/q+gMcreUEhz369/w/o9K9i5ZK8HuGzcP8HWJFNxW7w/wGdfmnU8UuF92uX116D6oX7DIbunEFutqEVRMdO4354OedVtalovKMx+GMncGsK8N99CH9r9nfJqRO4NSXW67+Ji2+v4NafPBjKSYuzgvA7xxGO5Tc3rw1Ks+pVt6EN3qMeIHxDYUa9kMam7+ibsE8tq0q3k4ytqCglL6u9Deq2TXyKIKe+wv0qyH9PcuoEwu6H4ufpqFfHPqaseDwOGBQH9f3bYeCrT/HXb6SvNuGHHxwXPsLVBED79Gaz6rVCG7htxmxbPF5qtr8PATHg7wwE4AtNwthlASo/27+hx4POnhdYPr8mu043ou2KC5h+huVF8aUOF7qO72LhUR06+xslZXexfn0lpx2a6pW8boPMYgILMwk8l22jrf8Q2jqkr2wrfJZyvTszSuWIiIiIiIiIBDoD/2LQP/ob/O3+l+JrwsK+LXbIFs2VlL30ZeZVW98X6LzYWl4w3f5TeLyfYuFS9gaCre8LeC7+AfW3/ifWdSVrF9ubNLpewD7wCEMDHkTH3LglSVHjHX0E+6o06C8Ge8OncelYSFIuVjAVjX3gIS4OCIHjS+lAv7sN9ljuzQS0nsHQ2zdw65g7E9i2DzzC0J1HQE5gWCkdjngjYLZNMYhcug0e2FuB5GPlgH30cQgY9cAOFA/8+/8d/tYVhGU3StSV1deG0tsWwn3JvhJu8BR7IkGyj8fS7xPSDfW1AslM32qtFxr2cbkO490PlIKZZii0YLBEWQsSSz/KCSdQZj1N+B8HgfhXmzmvpVO9/PHPh/HuTw7D9+FTjQFXs+q1Qhu4beVvmxPqHlqJIBSKwxdwIh4KGd+f6Rn80xpm+6spaySHA53HE1g4/yyzpkBDjwedZz2ALPivnhCcb5hZwXzOYruNaLvyCuqnIVm/QAzkJxJYOJ9d18DWfwhtV/bJbkCIZRfXMJ/pJ3ExZIf8by4iIiIiIiIiga7Af73/LSEwfv9LyaurWL81CAzdzpmRZuv7tUJZIHV/EPVDt+Hpex0p2e9UU3hqIF1vi/91rOuot97/Fmz4EisG1wv3GfSJQX/5QrPRseM5P3tHxYD7WEhW7gTCdx+ib/QzSbA4TWFGd0xp5rw8xQ2QnLqB6MBN2FsBiO9XToeTbYN/IICw1ja4xYC6/GZEjjbY3dl2CAFyeaA7hPvHjivM2FdRVlcbAPX9q06mf3P6cBnhUyeAuw9lM/y1UreP9VBa4Dfyfyqx6KrCgsGW1gSnK/fnTH73nz1C/Pt607qYVa8V2sBtK18cah9aiYfGMWzKAbVXcvtvY/la7kLCz2cSSPW4UO+AvocvOl6BDbtYX9yV/WIby+dzb2w09DhgU2hDanoF6+c8aOlpxJoY5G/ocQg3CHJujuxi7doKcM6T/3QBEREREREREXTl+G+FzXsQSK6qmGX2Ov67F9iJfqlQdhWp6DeAt9vgL61ivfZW1Gt+r7ht0TmFpxDKqRew+wOwI4RouFTJALx+IPn4M4Wg8jKij1cA/5v5geHwjbJnctvd6dz26XQ4nykE18U2iAF0o9uQL4T7x9y4JP03BvTNxjCUl4tfS1mNDN22Yv1rruw+1ify4S8w9CPJvw+fKt4M2Juc8PmcQCRi8AxoWZDX8vVaoQ3cNn3EwL/PZ1TGKu1qILd/Q1OdvjcmdrGDOrScPYSunBRCcnWwHa4DFv+h8LfGLlJPd4GmOjRIy27u5twgICIiIiIiIipFd47/naT63B7Pk6sF6lB+3RD2VjRA6yPwB1FvB2D/Nb53sVAZPfWKVldUzxAvNCO9+Ex1owjpcNB6ExdnbxYugxIpeeRiwvbb3W1AwTQ9y5I0NwWET+N+OKBuPQB5WaPaYAAtaxRY1lePEPrJYQT+7TDwVSVm/pvAF8RE0AcAiEwOY9iQqP8m4muAE0344e9/ioDrKf74o2yQ16k7n7tZ9VqhDdw2I0QmhzHsC2JiYiLz86R5uZFk9spsf5NsJvBkuk4I+ne40HVF8phHIoGFzOz+fcJTBQ5ZmRx1qEc2NdDO5gsTG05ERERERES1SHfgv95+EIC6wH2DvVWxbH2B1w2RXNUxO+4b7CQBJKVrFxioVX2wvFBgWpixbXbwfwXJVQCx0wophcqv1+v2QGkbvEcDwGr+4sVKkrEVwK+uP3PLGteGctkLtIGUmJjjPzKJ4eH0Z0xgwjeJs6NmMwAAIABJREFU4bIjpZv4v98AgZ/8FAE8xR9/9GnOUwROVxPw1SMdTxaYVa8V2sBtM2LbfMEJBJ0hjA8PV/5Jib2Q299si2uYP78meSGdi9+Btp5tPJnZBfACOwkAm9Kc/cXVN+0DIE8hRERERERERFSYjlQ/WlLefIn/FwXqva8rlM1Pq2PMEwDFUxE9L/qkglnph4BkOISkmManOCEdkP3om/mpdCqWIqZISiHT6i2W4iif3e1R/QRFblnj2qCfWf1bBd8/joCrEnn+hRz/w8NF/pW9sG8ckUgc8PngM6DFQp/kB3mBw/jX7xfuM+dP/gO3/vfvcPEnynnfddcbGMHExARGit49UYfbptAGk7ZNG2Fx33gkUvJYMLLPBOkZ/AkNs/3VlFXnuUkz4suvV8jFv57IfS31dFdcE6D0+3NT/xARERERERGpoyPwD+yEP0HK/lN09r2e87qt7zZaZNHq1P3fFCn7JVakM+ujc0jhdbT4WyUlW9Ey9GvlL8f2n6Jz6Kc5NxWEer/Belh5xv5OchWw/xQt0oir5CbGTvg3WE++Ds/F/M+09X2Bzpy2aRC7gftTK/COxtAnC/57R3Nz0EfHTiPaegZDowFZuYfwt8oXhDVHcuo0wqsB9M3ezAtOy9urq967ZyQ3Ntrgv3sTXoQQnlIxA959Bn61AXqFsoa0oUzJqRuIIoC+nH3cBv/dh9A7xCqrCT/8/e9w64PDwFef4o9fVbs9FvTVI4TWDuPd3x+X5FsXUr341h7hr4p9dhg/FAPHzp8cV74BoateHwJigNcZCJR/Y4PbJmPWtmklBP5LM7jPAHEG/zaWVc/2V1lWrcV/IIVGuHqk+fnr4DrnKu9GvoZ6G3o86DrnyA/Qi083pCSL/j6f+QbriUa0Xcmvx9Z/CEckn/d8JoGUw4FO2boBtn4PWhx6N4yIiIiIiIhqnc5UP19i5dJvgIu5ufB3woNYid5GS17ZH+D/9X2Rmzc/+SkWLn0qm5X/JVZufYrOodv4niQ4nro/iHX/7fynBqK/wULyLXRe/Gle2/IXzMu+52/3f43v9X2R82V7JzyIhfAqgFWs3/oBUv4/oPPiF/BI35v8FCslF+ctLDl1HJfCZzB0J4bcJQRCCD/2wI50vvoQ7h8LwTsay82xv3oDt45VJg0NsIzwKTeiA48wNCtLeL96A/enyqs3ORrD0OyZnDqVty2AvtlA3qvJqRO4lRegV1tWaxv08sB/J4bsUA7h/rHT4tMaIdw/BvTN5q6jkJw6jfDR/Jst6us1h+ICvl99iqGf7dG8/sXE4walSNnEX3/2C/zfD36Hi//7ePblrz7F0IeF+u0p/vrnTfh+0oT4nwulftFTbwSRCODzwaDt47blMmvbtBIX9y1Zzug+E2bw78ysFL726iqrxTaWr9fhyFkPunqyr6amV7B+3KPiCUUD6l1MYP2wC51X5NH4bSyfl2/vLtauPUOqx4POK4dyiycSWJ6Rvx9ou5K7JsDOzAqW4UGhVQKIiIiIiIjo5fadgwcP/rPajSCiNGHWv/ex0o0NM/gQnAgCZi8A6gtiIuhEaHwcoYonHlcvkx+97LRB1uQMjGDEGTJgDQPrqeVtU09cCyOubp0KY/osncN+G8vn10oE87WUJSIiIiIiIqJy6F7cl4jM4IG9FUjGuOhvNcTVTZfeo3wIBIDQeC0Gxmt527SLx9XctjKqz4SZ62ulC2osS0RERERERETl0JXjn4jKJc/vD2TWGVi9gXAZKaVIv3gkgrgzgKBhC55ag7CQaxDO0KSln7jQo5a3TStnIIiAU1ykumg59hkRERERERFRrWOqH6Jq8N/ExbzAP4DwaVyqwOLNWUKqn7zFPePlpLsR043kxc7jlk/1A0BMS5TtkYjZaZCIysHxSkREREREREQKGPgnIiIiIiIiIiIiIqohTPVDRERERERERERERFRDGPgnIiIiIiIiIiIiIqohDPwTEREREREREREREdUQBv5fUt7RGC7OxtDnf7nbYAXsB+vgviAiIiIiIiIiolrwXWOra0XL0G3YooNYCK8aW7VMvf8P6PTOYeHWp9gpVtD7a3yv7/Xc15Kfln5fTQvAKwY2vUcDQDhkYN1tsLuXkYxVsw17CfvBOszYFz4EJ4LwyV+OhzA+HkJcV51OBEZGEHDmVYrQ+DhC+iqtHF8QE8Fsj0QmhzEZqWJ7iIrheCUiIiIiIqI9yuDAvwVFf4O/Xcr+aOv7Ah579ZpjDSFEwzfh9QPRx0YGmgPom70JjLlxv2Tg36w2lNIG/92H8LcC0TE37oclv/LfxMXRALB6A7dO3UCyIu2pVj/o4x2VzYZX6qt0Pyoo2OdqykrYBx5haMCD5NQJ3Jpa1rIJRZi3L9QEC30f/A7vfl/24tojXPrZI9kNgjhC48PIaaEviIlg3p0A63EGMBL0IR4ax7hBdyjy+u2rTzH04VPL1muFNnDbNIhMYnhY+K8zMIKR4AgCe+EGGxEREREREb30aj/wT4qiY25cKl2sptsgn9XtPaocgDZbtftBHeGmjnf1Bm4dSwf6hZsoQ7Me3D92GtGc8qH81/w3cXE0hr68gL6WssLneo96AAD2o2/CPrVs2E2aau0L3we/w7sHH+HSj6RB/ib88Pf/gYu/h0Lwf29y+nxwxkMGBf2F/glA2m/Ca7d+r3TDpNr1WqEN3LZyxEOTCPlG4PM5EWLkn4iIiIiIiCyOOf7ppZQMh5D0vwlv5pUAvP4VJM3NULVn2QfOwIsQ7ufM7l9G+NRpRBGAf6CtdCXh/0J4VeUNlmJl3W/C27qC8NgNJFsD8Lo1bIhFRT78BYbyApOb+OufnwKuw/jXg1VqmMGcTgOfSvj+cQRcmwh9KO23Tfz1w0eIu47j3Z80WateK7SB22YINePYGRjBxMQERvJzchERERERERFVRBkz/l+H5+KvYZO8shP+DVIFStv6voDHK3lBIc9+vf8P6PSvYuWSvB7hs3D/B1jJnVaMBv8f0OmXRsW+VHi/dnntLateyWxphRQyQvoUyaxndxv8Aw/hz1tgVGFmtPh+f+wEbk0hk8YmLZsKRWxDzjtXEH7nOMJKaXlUt0Gh3tEYLip+hsY2SLZPVXqZt1dw608eDOWkjilQf2wFSf8ZeP2nEQ0D8L8J72oI4dgZ+KWBZNX9UCSFkPsMhu6cgT3Tbi39EEDf7JtITrXBP+DJbH84dibTJmm6GyEFzrLCOJGkYQprrVecYR++kTf20ulx+jTMvE/GVlSUKlzW7g/AvhpCNPwZsHoGXn8bwjFpuh+z9kWa0nsAhG/g1tQNFetbvLzi8ThgUBzU92+Hga8+xV+/kb7ahB9+cFz4CFcTgE3L1GuFNnDbjNm2eLzUbH8fAmLA3xkIwBeaBJcFICIiIiIiokrTGfgXg/7R3+Bv978UXxMW9m2xQ7ZorqTspS8zr9r6vkDnxdbygvT2n8Lj/RQLl7I3EGx9X8Bz8Q+ov/U/sa4r/4fY3qSR9YZwf+xNXBwNwOu+IQsoCguKRsckgdqYB3Z/fpDfOxpD3ywUg//2gYe4OCAEay+lc56722DPBERDuH9MkhXcfQZDd4rMvFbdBmm98uCyQj9oaUM6wBo+jUuS93lHY8rpZVrPYOjtG7h1zJ0JQNsHHmHoziMgL5D7GaLhM/C724DwMrxHA0g+PoGk+4zOflhG+JQbydEY+kZvwpt5vQ3+0TOwh0/j0lh6G7T3g98t9oEYuPY+PoFLY8tiSpx/h3cqf0yUprZeD+ytQPKxcsA++jgEjHpgB4oH/v3/Dn/rCsJhFTn5C5YVbkJE/yTc+Ik+XoE/76aDufuib/Ym7NLjLPP6m7CPlegDTQ7j3Q+UgplmKLRgsERZCxJLP8oJJ1BmPU34HweB+FebOa+lU7388c+H8e5PDsP34VONAVez6rVCG7ht5W+bE+oeWokgFIrDF3AiHgox6E9ERERERERVoSvwX+9/SwiM3/9S8uoq1m8NAkO3c54CsPX9WqEskLo/iPqh2/D0vY6U7HeqKTw1kK63xf861nXUW+9/CzZ8iRWD60X4M0QRyJudnEmhkpfzPH9x0ejUjdxZ6jkUZinHysl9rqcNxvKOik9JjOW2Izp2AuG7D9E3+pkkgCu2WfYkQHLqBqIDN2FvBSCbiR19HELf22/CPgXY3SuITi0DeWljtPVDpm13V3Dr1A3YRx/C3xrC/VPlLRabu9jsCqJqgudG1esWg/qxYp/ZBrsbkj4OoG9WHkAP4f6x4wo3KDSUdb8Jb2sIYbHPk+EQkgNKN9RM2hf+N+GF0g0J5XGildICv5H/U4lFVxUWDLa0JjhduT9n8rv/7BHi39eb1sWseq3QBm5b+eJQ+9BKPDSO4b1zQBEREREREVEN0pHjvxU270EguSqb2a/kdfx3L7AT/VKh7CpS0W8Ab3fOjYLyifXaW1Gv+b3itkXnFJ5CKKdeAAghPLUC+8C/S1KECLOXk1P/pW62dmylcCA/nB/4NEWxNhhKeBIi+fgzhc9bRvTxihiEVcfuVshBH/4M0dYAvP434W1d1paipWA/LIu5589gaDaGPv8Kwu/omY2/14Vw/5gbl6T/xoC+2RiG8tYDUF/W7g/AHv5M8nTMZ4iueuD1K60xYMK+WF1BEh7478RwcdT4xaAjH/4CQz+S/PvwqeLNgL3JCZ/PCUQiBs+AlgV5LV+vFdrAbdNHDPz7fEZlrCIiIiIiIiIyje4c/ztJ9bknnhdYMXXHzJVU7a1ogDztUCkHUW8HYP81vnexUBk99QqE2cmSWeLiIqVKs6zz8tpLVCqIbIU2FJplXnz2uVpifvrRM0BYCAgr3UjQ3A+xG7g/FcDQgAfJqdOVuSHz/9m7o9A2rnx/4N8LF3qTh1u47sSrSxLpRYYMW/uifWm3JGNMbZZMHwrVQ6Apaop6s7Ip1d5tloXWFnIaWJpyr0uxvGlNsqIp9EGFfeiEYBfjScjdfRLX6aKA9SI1YbWO6oX+H+rbp/t/mJE8o5mRZkYztux8PxBIJkdH55wZHcu/OfM7YdJvcgh6WiR7Lm6cqDMoqbK7/QBsy+p7DUQXMbe2aC6fckh3FPS5qC1gKR/Xgv5SRzsc9vDoy71VKOdGIf98FLi3Fyv/Q5BIo5BOAADKy9OYDiTqv4XGQyCCYbz08XnIJ+7j05d3g7wR3/ncw6p3ENrAvgWhvDyN6UQahUKh/e9l5vIhIiIiIiKiAeQ78H9EOAnAXeD+qBC1LXvE4XggmnX84PlF32KnCaBp3LsgQLUFqGoWyXEZUBWIKS3feGcw0rLZb5ueQ38PDEIbAOdgs7aCv//gf2VdASS5I+XNLl/jEMsimYqjWa9CSC1CUrtvXjz4qmjWATEWh92Yi+MyUHcX8G7WqoDkYj8Au7LS21qqHodzYZt+Koxzoc5gfmLGcKC1mXAWydSt9kbLB0uIOf7Ly5iebr1HAYXEMqb7jpRu4a/fAvK585BxH5++fNP0FEHkxDBwb9XHkwVh1TsIbWDfguhbIl1AOqLg8vT0Pj0pQUREREREROSOj1Q/XlLe3MXfK8AR8bRNWWtanWCeAOieiuiHrk8qhJV+aJcWaM5Ciumb+loCznqudGM6kz03CG1QUFEBYfwsBMv/6Su/g2ifegsV/b2s/IyDjOR17YbO0oUZqPU4pOuLrlMS9SuYJyE6dUut1C0lk5UQi+vpcryXFcdlh3OhnT9xvDP1zl6di02oF6aghnEP84VJyCf2Is+/luN/errLn7439m2gXG4AiQQSAbRYGxNrkBcYxc9ecB6zyLlfY+mPH2DunH3ed9/1yrMoFAqY7Xr3xB32zaYNIfXNG21z30a53POzEOSYEREREREREfnhI/AP7KifYVs4j7HkadPxoeQ1HO+I0m6XrnQpexdV48r6yh1s4zSOS1FDySiOZ961D8QL5zGWOW+6qaDV+y0eqfYr9neadUA4j+PG6J/hJsaOegWPmqcRn7O+51DyNsZMbfNB/cgQgLQLODsFWUcg3dirALLfNugB2NezpmC9KPnLhV7Jz6ASzSLTkUtdbG3Smg9i50S7FeQt3sfBvCHxJtQLM6hARjKEfPC29E2kJVNu/P6vnWZxBmpdRvKG8dy26lWgulnlHstCcnuTwFLW6UaZ3r6a9TyFcS6E1CrmbmStN6OktyE5pO3yZxgvffwBli6NAvdu4tN7AVV7mNxbhfJwFG9+PGnIt66lekk8XMVXtmM2ipf0wHHk3KT9DQhf9SYg6wHeiCz3f2ODfesQVt+80gL/vQU8ZkREREREREQ++Ez1cxfV+SvAnDkX/o56EdXKNRy3lP0F/p68bc6b37yJjfmbHavy76K6dBNjmWt4zpBTfbt0EY+ka9anBipXsNF8DWNz5y1ts27Ou/uaP5fexXPJ26bA/o56ERtqHUAdj5Z+gW3pE4zN3Ubc+NrmTVRtV4Z7oQWTpZTzpr7N4iSWsIrMmjknSSUfQ2m8FmDwX9ukdHeod4PgfttQyU9BvbGCzFrWcFRBaUJxCK47t6H1OjFXs+ZSnwg4l7oD9+PQSveioGRqm4LSG3Fkri9ibu1sl5sM3cbBi9b7rWAuZWzvFNTXV2yennBrE+qFGJq5mvncOp4LGck1a4C9WZyySYXTu6yQykJE1XFVfWv/DCn1ESpFhHcu1AWo44sd13erzKTvJ1BsN/C9dxOZtw5oXv9uGo2AUqRs4au3foO/XvoAc3+c3D187yYyV53G7T6++mILiXPDaHzhlPrFT71llMtAIoGA+se+mYXVN6/0zX17lgt6zIiIiIiIiIi8+4eTJ0/+3343gojocEogXUgDYW8AmkijkI5AuXwZygBHGdv50ftOGzSYIvIsZiNKAHsYDJ7D3Df39L0wGu72qeCYERERERER0X7yleqHiIjIq0bjMIb7WxKQZUBRDmOQ9zD3zTt31zHHjIiIiIiIiPYXA/9ERLQnGuUyGhEZ6UO24am2kWsaEWV5oJ+48OMw982riJyGHNE3qe5ajmNGRERERERE+4+pfoiIQqOl+rFs7tnoJ92Nnm7EEjtvDHyqHwB6WqLdESmHnQaJqB+8XomIiIiIiOiAYuCfiIiIiIiIiIiIiOgQYaofIiIiIiIiIiIiIqJDhIF/IiIiIiIiIiIiIqJDhIF/IiIiIiIiIiIiIqJDhIH/J5SYq2FurYak9GS3YRBwHMLF8SUiIiIiIiIioifNPwZbXRTHM9cwVLmIDbUebNUdjkifYEy8g42lm9jpVlB8F88lT5uPNW/2ft2hJkPUg6DiuAyoSoB1j0CIbaJZ2882DJoRSDdWIK5PYam42fF/T9I47IcwxjeBdCGNROfhhoLLlxU0fNUZgTw7CzliqRTK5ctQ/FW6dxJpFNK7I1JensZyeR/bQ9QNr1ciIiIiIiJ6AgQc+B9AlSv48/zuP4eStxEX9q85g0FBRV2EKAGV9SADzTKSa4tAPoZSz8B/WG3oRQvCS1Ggko+hpBr+S1rEXE4G6gtYurCA5p60Z7/GYZeY61gNb9f/1tjYcBxHN2UNhNQqMqk4mkW7GyR+hTe+boKFiUsf4M0XOg4+XMX8W6sdNwgaUC5Pw9TCRBqFtOVOwOCJyJhNJ9BQLuNyQHcoLON27yYyV+8PbL2D0Ab2zYPyMqantb9G5FnMpmchH4QbbEREREREREQeHP7AP9mq5GOY713sULehcwW4OG4frA7b/o2DdqNGrC9gaaIV6NdujGTW4ihNzKBiKq9Yj0mLmMvVkLQE9L2U1d5XHI8DAITxsxCKm4HdeNmv8U1c+gBvnlzF/MvGIP8wXvr415j7GDbB/4Mpkkgg0lACCvpr4yPDOG7asaWP7W6Y7He9g9AG9q0fDWUZSmIWiUQECiP/REREREREdIgwxz89kZqqgqZ0FmL7iAxRqqIZboaqgSKkshChoGRa3b8J9cIMKpAhpUZ6V6J+BLXu8qZJt7KxsxCjVaj5BTSjMsSYh44MqPLV3yBjCUxu4asv7gMnRvGzk/vUsIBFIgE+lfDCJOQTW1CuGsdtC19dXUXjxCTePDc8WPUOQhvYt0C4uY4j8iwKhQJmrTm5iIiIiIiIiAZOHyv+TyM+9y6GDEd21CvYdig9lLyNuGg4YJNn/4j0CcakOqrznfVo74XSL1A1L0HGUekTjEnGCNpdm9d7Z2lvX/UaVlbbpJDRUq0YVkjHRiClViBZNiO1WUWtv16qTWGpiHYam5bdtCl6G0yvrEJ9YxKqXVoe122wqTdXw5zte3hsg6F/rlLRvF7F0h/iyJjSzDjUX6uiKWUhSjOoqACksxDrCtRaFpJN0NnSBodzYdfHZrGznLdx0FLgbNq8nyG1ktr691k0iyOQUtrqedQXtD5Jrba0rgd9hb26YNMHLT1O0sPK+2at6qKUc1lBkiHUFVTUW0A9C1EagVozpvvpkqIplkXmehZC+7rwc53ZvQaAuoCl4oKLPSueXI1GAwgoDpr4+Shw7ya++tZ4dBgvXZrU3uLEMICtgal3ENrAvgXTt0aj12r/BGQ94B+RZSSUZXBbACIiIiIiIhpkPgP/etC/cgV/Lt3Vj2kb+x4X0LFprqHs/N320aHkbYzNRfsL0gvnERdvYmN+9wbCUPI24nOf4MjSv+ORr1whenubQdaroJQ/i7mcDDG20BF81DYfreQNQd1aHIJkDSyLuRqSa7ANOAupFcyltMDufCs/emwEQjt4qqA0YcggHssic73LKm3XbTDW2xmIthkHL21oBWPVGcwbXifmavapaKJZZF5fwNJErB2sFlKryFxfBSxB31uoqFlIsRFA3YQ4LqO5PoVmLGvfBlM6nNY4jHQEkw3tzbfauxuw3r1svI6DFzKkmD5eekBcXJ/CfH5TT7XzNsTiDCqIQ4gCzXX7gH1lXQFycQhA98C/9DakaBWq6iInv2NZ7SZE5Q/a+FbWq5AsNx02oV6IoZmrIZlbhNg+9yOQclkIpjH3d50Jxs9O+/hZCPkeY+DJKN68ZBfMDIPThsEGfW1IbHyrCCJAn/UM419PAo17W6ZjrVQvn34xijfPjSJx9b7HgGtY9Q5CG9i3/vsWgbuHVspQlAYScgQNRWHQn4iIiIiIiAaer8D/Eek1LTBeums4WsejpYtA5prpKYCh5Ls2ZYHt0kUcyVxDPHka2x3/55rNUwOteo9Lp/HIR71HpNcwhLuoBlwv1FuoQLasZG6nW7HkR7duRFopLphXqZvYrGiu9ZMn3U8bgiXm9IB73tyOSn4K6o0VJHO3DMFevc0dTwI0iwuopBYhRAF0rNqurCtIvn4WQhEQYlVUiptAx2p/+3Q4u22QUjJUvQ1CKmvT3k2oF6aAGyvW1eQhMW9iW0XFLigf04P6tW4B+xEIMRjGTUZyrTOArqA0Menw5IPLsrGzEKMKVP16aqoKmim7m2SGc3+jiqULCxByK5CiCkoX+ti4VzoLEXY3JOw/A17ZbfBb/u+92HTVZsPggTaMyAnzv9v53d9aReMFv2ldwqp3ENrAvvWvAbcPrTSUy5g+OB8oIiIiIiIiesL5yPEfxZB4EmjWO1b22zmNfxGBncpdm7J1bFe+BcQzphsF/dPrFaI44vm1et8qd2yeQuinXgBQoBarEFJvGwLA2krnZvEjm8CpjVrVOZCvWoOkoejWhkBpT0I012/ZvN8mKutVPWDrjhCzyVev3kIlKkOUzkKMbtqkc2mlw7llc370NugB9HbZPRuf/aCgNBHDvPFPHkiu1ZCx7AfgvqwgyRCMY1y7hUo9DlGy22NgU98HIIvMWg1JqQr1DbuUSx7Uq2giDul6DXO54Dd4Ll/9DTIvG/5cvW97M+BgiiCRiADlcsAroDuCvANf7yC0gX3zRw/8JxJBZawiIiIiIiIiGgi+c/zvNN3nqfjBYcfUnTB3UhWiOIrOtEO9nMQRAYDwLp6bcyrjp16NtpLZsFpe39DUbkW2Naf8rr6CnB4MQhucVqR3X6nulp7LPpcFVC14bL6RoKXDQXQRc2uLDnWY0+F4yXW/r/QbFIKe6sie3c2QDuoMSqrsbj8A27L6DRO7MU610hJ1tn0BpaKMTCqOZnGm/xtetQUs5eNa0F/qaIfDvhx9ubcK5dwo5J+PAvf2YuV/CBJpFNIJAEB5eRrTgUT9t9B4CEQwjJc+Pg/5xH18+vJukDfiO597WPUOQhvYtyCUl6cxnUijUCi0/73MXD5ERERERER0wPkO/B8RTgJwF7g/KkRtyx5xOB6IZh0/eH7Rt9hpAmga9y4IUG0BqppFclwGVAViSstN3hm4tGz226bn0N8Dg9AGwDkwra3g7z/4X1lXAEnuSI/TUkWzDqA205FSyJkQiwfSrvBpfRMd2iuOy0DdXcC7WasCkov9AOzKSm9rqXocrjPblFKxLJKpOJr1KoTUIiS1++bQrqgzmJ+YMRxo7c2QRTJ1S98Q+aAJMcd/eRnT0633KKCQWMZ035HSLfz1W0A+dx4y7uPTl2+aniKInBgG7q36eLIgrHoHoQ3sWxB9S6QLSEcUXJ6e3qcnJYiIiIiIiIiC5yPVj5eUN3fx9wpwRDxtU9aaVieYJwC6pyL6oeuTCmGlH9qlBZqzkGL6pr6WgLOeV902vcxeGYQ2KKiogDB+Vk+lY9QtBY9H6i1U9Pey8pJSqDP1T3CCebqhU7e+dUuzZCXE4nq6HO9lxXHZ4Txq50Qc70y9IyN5XbthtnRhBmo9Dun6Ygj7J2h7M6hh3Jd8YRLyib3I86/l+J+e7vKn7419GyiXG0AigUQALdbGxBrkBUbxsxecxyxy7tdY+uMHmDtnn/fdd73yLAqFAma73j1xh32zaUNIffNG29y3US73/CwEOWZEREREREREYfMR+Ad21M+wLZzHWPK06fhQ8hqOd0Q9t0tXupS9i6pxZX3lDrZxGselqKFkFMcz79oH4oXzGMucN91ctR/zAAAgAElEQVRU0Or9Fo9U+xX7O806IJzHcWOk0HATY0e9gkfN04jPWd9zKHkbY6a2+aB+ZAhW2gWcnQKyI5BuhBHgtOO3DXqw9vWsKfgtSv7yplfyM6hEs8h05F0XWxu6ulyF353davNdzeIM1Lq++rzj/8ScOV99s7jQpb19NFHfGFoy5cbv/3po9+2G8Xy16lWgulnlHstCcnuTwFLW6eaX3r6a9Ro0b/i8CfXCDCqQkewjN7+QWsXcjaz1ho30NiSHVFz+DOOljz/A0qVR4N5NfHovoGoPk3urUB6O4s2PJw351rVUL4mHq/jKdsxG8ZIeOI6cm7S/AeGr3gRkPcAbkeX+b2ywbx3C6ptXWuC/t4DHjIiIiIiIiChkPlP93EV1/gowZ86Fv6NeRLVyDcctZX+Bvydvm/PmN29iY/5mx6r8u6gu3cRY5hqeM+SW3y5dxCPpmvWpgcoVbDRfw9jceUvbrJvz7r7mz6V38Vzytimwv6NexIZaB1DHo6VfYFv6BGNztxE3vrZ5E1XbleFeaEF1KeW8qW+zOIklrCKzZs5fUsnHUBqvBRj81zY03R3q3SC43zZU8lNQb6wgs5Y1HFVQmlAcguvObWi9TszVrHnXJwLOu+5oE+qFGCop61igvoBS0XhAQWkCSK6Z88Q3i1MoYQUO2yXoeozDG3Fkrq9gLrX7ikp+CurrK308YaD1rZmrmc+X4/jKSK5ZA+zN4pRNKpzeZYVUFiKqjqvqW3tiSKmPUClCT72joGRqW2tsFjG3drbLTZwu46suQB1f7LhmW2UmfT9VYruB772byLx1QPP6d9NoBJQiZQtfvfUb/PXSB5j74+Tu4Xs3kbnqNG738dUXW0icG0bjC6fUL37qLaNcBhIJBNQ/9s0srL55pW/u27Nc0GNGREREREREFK5/OHny5P/tdyOIiA6OBNKFNBD2BqCJNArpCJTLl6EMcJSxnR+977RBgykiz2I2ogSwh8HgOcx9c0/fC6Phbp8KjhkREREREREdFL5S/RAREQFAo3EYw/0tCcgyoCiHMch7mPvmnbvrmGNGREREREREBwcD/0RE5FujXEYjIiN9yDY81TZyTSOiLA/0Exd+HOa+eRWR05Aj+ibVXctxzIiIiIiIiOhgYaofIiJPtFQ/ls09G/2ku9HTjVhi542BT/UDQE9LtDsi5bDTIBH1g9crERERERERPQEY+CciIiIiIiIiIiIiOkSY6oeIiIiIiIiIiIiI6BBh4J+IiIiIiIiIiIiI6BBh4J+IiIiIiIiIiIiI6BBh4P8JJeZqmFurISk92W3wIqz2HrRxOMx4LoiIiIiIiIiI6DD4x2Cri+J45hqGKhexodaDrbrDEekTjIl3sLF0EzvdCorv4rnkafOx5s3erzvUZIh6YFMclwFVCbDuEQixTTRr+9mGMITV3oM2DodZGOcigXQhjUTn4YaCy5cVNHzVGYE8Ows5YqkUyuXLUPxVuncSaRTSuyNSXp7Gcnkf20PUDa9XIiIiIiIiOqACDvwPoMoV/Hl+959DyduIC/vXnMGgoKIuQpSAynqQgWYZybVFIB9DqWfgP6w29DIC6cYKpChQycdQUg3/JS1iLicD9QUsXVhAc0/au1/j4I+Y61gNbzdWrXG04TjmbsoaCKlVZFJxNItTWCpueulCF+GdCzfBwsSlD/DmCx0HH65i/q3VjhsEDSiXp2FqYSKNQtpyJ2DwRGTMphNoKJdxOaA7FJZxu3cTmav3B7beQWgD++ZBeRnT09pfI/IsZtOzkA/CDTYiIiIiIiJ64h3+wD/ZquRjmO9d7FC3oXNVtzhuH4BuCau9+z0O7mg3dcT6ApYmWoF+7SZKZi2O0sQMKqbyivWYtIi5XA1JS0DfS1ntfcXxOABAGD8LobjZcZPGv/06F4lLH+DNk6uYf9kY5B/GSx//GnMfwyb4fzBFEglEGkpAQX9tfGQYx007tvSx3Q2T/a53ENrAvvWjoSxDScwikYhAYeSfiIiIiIiIBhxz/NMTqakqaEpnIbaPyBClKprhZqg6sIRUFiIUlEyr+zehXphBBTKk1EjvStSPoNZ732DpWTZ2FmK0CjW/gGZUhhjz0JEBVb76G2QsgcktfPXFfeDEKH52cp8aFrBIJMCnEl6YhHxiC8pV47ht4aurq2icmMSb54YHq95BaAP7Fgg313FEnkWhUMCsNScXERERERER0Z7oY8X/acTn3sWQ4ciOegXbDqWHkrcRFw0HbPLsH5E+wZhUR3W+sx7tvVD6BarmZcU4Kn2CMckYFbtr83rvLO3tq17DamlLCplW+hTDqufYCKTUCiTLBqM2K6P110u1KSwV0U5j07KbCkVvg+mVVahvTEK1S8vjug029eZqmLN9D49tMPTPVXqZ16tY+kMcGVPqGIf6a1U0pSxEaQYVFYB0FmJdgVrLQmoHkj2213UbvNQrI7l2Fs3iCKRUvN1/tZZtnxtjuhstBc6mzXViSMOkeq1XX2GvLliuvVZ6nKSHlffNWtVFKeeygiRDqCuoqLeAehaiNAK1Zkz30yWdUyyLzPUshPY15OeatHsNAHUBS8UFF/tbPLkajQYQUBw08fNR4N5NfPWt8egwXro0qb3FiWEAWwNT7yC0gX0Lpm+NRq/V/gnIesA/IstIKMvgtgBERERERES013wG/vWgf+UK/ly6qx/TNvY9LqBj01xD2fm77aNDydsYm4v2F6QXziMu3sTG/O4NhKHkbcTnPsGRpX/HI1/5P/T2NoOsV0EpfxZzORlibKEjoKhtKFrJGwK1tTgEyRrkF3M1JNdgG/wXUiuYS2nB2vlWzvPYCIR2QFRBacKQFTyWReZ6l5XXrttgrLczuGwzDl7a0AqwqjOYN7xOzNXs08tEs8i8voCliVg7AC2kVpG5vgpYArm3UFGzkGIjgLoJcVxGc30KzVi2j/a6bYP3cZBi+hjogWtxfQrz+U09Jc7bEIvWa6I3t/XGIUSB5rp9wL6yrgC5OASge+BfehtStApVdZGT37GsdhOi8gftxk9lvQrJctNhE+qFGJq5GpK5RYjt62QEUi4LQZ3BfL41/v6uScH4OWsfPwsh32MMPBnFm5fsgplhcNow2KCvDYmNbxVBBOiznmH860mgcW/LdKyV6uXTL0bx5rlRJK7e9xhwDaveQWgD+9Z/3yJw99BKGYrSQEKOoKEoDPoTERERERHRvvAV+D8ivaYFxkt3DUfreLR0EchcMz0FMJR816YssF26iCOZa4gnT2O74/9cs3lqoFXvcek0Hvmo94j0GoZwF9WA64V6CxXIltXJ7RQqlpzn1s1FK8UF8yp1E5tVyrV+cp/7aUOwxJz+lETe3I5KfgrqjRUkc7cMAVy9zR1PAjSLC6ikFiFEAXSsxK6sK0i+fhZCERBiVVSKm0DfaWO8tcEt82azVVTcBM+DqjemB/Vr3d5zBEIMhv7JSK51BtAVlCYmbW5QeCgbOwsxqkDVr72mqqCZsruhZrhOblSxdGEBQm4FUlRB6UIfG/dKZyHC7oaE/efFK7sNfsv/vRebrtpsGDzQhhE5Yf53O7/7W6tovOA3rUtY9Q5CG9i3/jXg9qGVhnIZ0wfnA0VERERERESHkI8c/1EMiSeBZr1jZb+d0/gXEdip3LUpW8d25VtAPGO6UdA/vV4hiiOeX6v3rXLH5imEfuoFAAVqsQoh9bYhRYi2erlZ/Mjdau1a1TmQr1oDn6Ho1oZAaU9CNNdv2bzfJirrVT0I644Qs8lBr95CJSpDlM5CjG6GnqLFtg2HloLSRAzzxj95ILlWQ8ayH4D7soIkQ1BvGZ6OuYVKPQ5RshvbTX0fgCwyazUkpSrUN/w8GWFQr6KJOKTrNczlXOxV4FH56m+Qednw5+p925sBB1MEiUQEKJcDXgHdEeQd+HoHoQ3smz964D+RCCpjFREREREREVFofOf432m6zz3xg8OOqTth7qQqRHEUnWmHejmJIwIA4V08N+dUxk+9Gm11smG1vL5Jqd0qa0tee4O+ApceDEIbnFaZd1997paenz6XBVQtIOz2RsITRb/ZI+hpkey5uHGizqCkyu72A7Atq+81EF3E3NqiuXzKId1RbQGlooxMKo5mcab/m2O1BSzl41rQX+poh8MeHn25twrl3Cjkn48C9/Zi5X8IEmkU0gkAQHl5GtOBRP230HgIRDCMlz4+D/nEfXz68m6QN+I7n3tY9Q5CG9i3IJSXpzGdSKNQKLT/vcxcPkRERERERDSAfAf+jwgnAbgL3B8VorZljzgcD0Szjh88v+hb7DQBNI17FwSotgBVzSI5LgOqAjGl5RvvDEZaNvtt03Po74FBaAPgHGzWVs/3H/yvrCuAJHekvCGzKpp1QIzFYTfm4rgM1N0FvJu1KiC52A/Arqz0tpaqx+GatE0/FcsimYqjWa9CSC1CUrtvJO2KOoP5iRnDgdZmwlkkU7faGy0fLCHm+C8vY3q69R4FFBLLmO47UrqFv34LyOfOQ8Z9fPryTdNTBJETw8C9VR9PFoRV7yC0gX0Lom+JdAHpiILL09P79KQEERERERERkTs+Uv14SXlzF3+vAEfE0zZlrWl1gnkCoHsqoh+6PqkQVvqhXVqgOQsppm/qawk467nSjelM9twgtEFBRQWE8bMQLP+nr/wOon3qLVT09zoMgnkSolO31ErdUjJZCbG4ni7He1lxXHY459r5E8c7U+/ISF7Xbq4tXZiBWo9Dur4YwlMdm1AvTEEN4x7mC5OQT+xFnn8tx//0dJc/fW/s20C53AASCSQCaLE2JtYgLzCKn73gPGaRc7/G0h8/wNw5+7zvvuuVZ1EoFDDb9e6JO+ybTRtC6ps32ua+jXK552chyDEjIiIiIiIi8sNH4B/YUT/DtnAeY8nTpuNDyWs43hGl3S5d6VL2LqrGlfWVO9jGaRyXooaSURzPvGsfiBfOYyxz3nRTQav3WzxS7Vfs7zTrgHAex43RP8NNjB31Ch41TyM+Z33PoeRtjJna5oP6kSEAaRdwdgqyjkC6EUbQ0o7fNugB2NezpmC9KPnLhV7Jz6ASzSLTkUtdbG3Smg9ilb7dCvIDTN9EWjLlxu//2mkWZ6DWZSRvGM9tq14FqptV7rEsJLc3CSxlnW6U6e2rWa9X8+bQm1AvzKACGck+cvMLqVXM3chab0ZJb0NySNvlzzBe+vgDLF0aBe7dxKf3Aqr2MLm3CuXhKN78eNKQb11L9ZJ4uIqvbMdsFC/pgePIuUn7GxC+6k1A1gO8EVnu/8YG+9YhrL55pQX+ewt4zIiIiIiIiIh88Jnq5y6q81eAOXMu/B31IqqVazhuKfsL/D1525w3v3kTG/M3O1bl30V16SbGMtfwnCG3/HbpIh5J16xPDVSuYKP5GsbmzlvaZt2cd/c1fy69i+eSt02B/R31IjbUOoA6Hi39AtvSJxibu4248bXNm6j2vTJcC6pLKedNfZvFSSxhFZk1c06SSj6G0ngtwOC/tknp7lDvBsH9tqGSn4J6YwWZtazhqILShOIQXHduQ+t1Yq5mzaU+EXAudde6tXcQ6lVQeiOOzPUVzKV2j1byU1BfX7F5esKtTagXYmjmauZz63guZCTXrAH2ZnHKJhVO77JCKgsRVcdV9a39M6TUR6gUoafeUVAyta01NouYWzvbZXy7nAt1Aer4Ysf13Soz6fs6sN3A995NZN46oHn9u2k0AkqRsoWv3voN/nrpA8z9cXL38L2byFx1Grf7+OqLLSTODaPxhVPqFz/1llEuA4kEAuof+2YWVt+80jf37Vku6DEjIiIiIiIi8u4fTp48+X/73QgiosMpgXQhDYS9AWgijUI6AuXyZSgDHGVs50fvO23QYIrIs5iNKAHsYTB4DnPf3NP3wmi426eCY0ZERERERET7yVeqHyIiIq8ajcMY7m9JQJYBRTmMQd7D3Dfv3F3HHDMiIiIiIiLaXwz8ExHRnmiUy2hEZKQP2Yan2kauaUSU5YF+4sKPw9w3ryJyGnJE36S6azmOGREREREREe0/pvohIgqNlurHsrlno590N3q6EUvsvDHwqX4A6GmJdkekHHYaJKJ+8HolIiIiIiKiA4qBfyIiIiIiIiIiIiKiQ4SpfoiIiIiIiIiIiIiIDhEG/omIiIiIiIiIiIiIDhEG/omIiIiIiIiIiIiIDhEG/ilQYq6GubUaktJ+tyR4g9C3QWgDEREREdGTZOjVn+L53/0UI8/ud0uIiIiI3PvHYKuL4njmGoYqF7Gh1oOtusMR6ROMiXewsXQTO90Kiu/iueRp87Hmzd6vOwikRczlZPOx+gKWLiygGegbjUCIbaJZ61VOhqgHpMVxGVCVQFuxvwahb4PQBrcSSBfSSHQebii4fFlBw1edEcizs5AjlkqhXL4MxV+leyeRRiG9OyLl5Wksl/exPUTdDPT1+hRO/Eccx/EYG//5GD8EVpY02pgN3a/if77+cU/f9+jwj/hhy+G/nz2B518FNn/7ENt72KrQPXsCz7/6tPnYY16v5EePz1BA79HX/HBgP8dPY0gP+A+NPg188/3+NoeccU4lIiIyCTjwP4AqV/Dn+d1/DiVvIy7sX3MCpc5gfmKm/U8xV0MyFvSbyEiuLQL5GEo9A/8KKuoiRAmorO9fUFpIrSKTiqNZnMJScTOgWsPpm5izrt53bvdgjK8XboKFiUsf4M0XOg4+XMX8W6sdNwgaUC5Pw9TzRBqFtOVOwOCJyJhNJ9BQLuNyQHcoLON27yYyV+8PbL2D0Ab2zYPyMqantb9G5FnMpmchD8oNtmeP4fixH/Hov1z8Eu+lLO2jpzHyuxPA53/BZqhBywH0zUP86bcP2/8cevWnGBnex/bQAfUEf4b2xPfY/uYEhp4Ftu8z6D/QOKcSERGZHP7AP+2pSj6G+d7FQjQCcTwOABDGz0Iobgb29EOwfRuBdGMFUm0G8xOGUHYsi8z1FWRgH/zf//ENVuLSB3jz5CrmXzYG+Yfx0se/xtzHsAn+H0yRRAKRhhJQ0F8bHxnGcdOOLX1sd8Nkv+sdhDawb/1oKMtQErNIJCJQ9j3y/xROTD4NfPMQD3sGt7yUJSIicrb9+V/wp/1uBBEREZFHzPFPh0vsLMRoFWp+Ac2oDDHwJyACIr0NKaqglO9YuV9bwNJELMAnFQZb+epvkLEEJrfw1Rf3gROj+NnJfWpYwCKRAJ9KeGES8oktKFeN47aFr66uonFiEm+e87msKax6B6EN7Fsg3FzHEXkWhUIBs9acXMForeD/2sWKSy9liYiIiIiIiA6ZPlb8n0Z87l0MGY7sqFcc8zUOJW8jLhoO2OTZPyJ9gjGpjup8Zz3ae6H0C1Qr5nqPSp9gTDJGB+/avN47S3sDqFfM1SDVprBUhLbaO7r7f3bpXaxpYBSUJmbQMQTuxUYgpVYgWTaG7axXS+9j6n6uhrn2P6pQ35iEWnMoa/p/I72swz4EWn+tffQyDoIkQ6grqKi3gHoWojQCtWYc15H22FfyMZRUw3/Fsshcz0Jot89L3zr62HlYXcBScaG9T4IQGwHgJrjvsQ12+z4Y9HeduesbWTUaDSCgOGji56PAvZv46lvj0WG8dGlSe4sTwwC8L28Oq95BaAP7FkzfGo1eq/0TkPWAf0SWkVCWEey2AHu/2v/oi3GMvfi/NvmoDWk1vtEPPXsCz0/+iI3VpzBmyi/8Ix79V9XUDk/1Go4PocM3j7Hx9WNLTu+hVzs3oPzeIae2td6dr/cq97ZNn179KZ5v/8M6bgBs8jc7lIOXcfDQXodc0dp7GeoffgonXozjuGUj0H7a4Ofa6e96AOB4nbk19OpPcWKriv/5GtqeG8d2/2/na2uueDftPfpiHGPDj7GxdQxjLz7Vs29htEETwmfT9Vzi7zM0EPNDCJ/j4M+x3bl1bqeXnwGeeJxLwrvW3Qnr52bb8DH826+O4Yjp4I/Y/vxbbH7jf18aV+MQ8rkgIiIKg8/Avx70r1zBn0t39WPaxr7HBXRsmmsoO3+3fXQoeRtjc9H+gunCecTFm9iY372BMJS8jfjcJziy9O945CvHi97eZtD16k1OrWAupQVg51sB2NgIBFNw2hAgn9gNkIu5GpJrIz0Cz13U4hCcAutrMBxXUGqnnzHk+FctNXaUhR48dwo8Kyjlz2IuJ0OMLXT0Qdu4tpK3uQHhehy0ND+VP2hlK+tVSJZ0P5tQL8TQzNWQzC1CbPd5BFIuC0GdwXx7Fb6Xvu22VzCe2/bxsxDyaLejqSpoprId4+4wZl7a0LHvg7FdYn0BJUu73I6v+771bxRvXrILZobBacNgg742JDa+VQQRoM96hvGvJ4HGvS3TsVaql0+/GMWb50aRuHrfY8A1rHoHoQ3sW/99i8DdQytlKEoDCTmChqIEP56tFfyfe1jt76ZskI4dw9jkY2z89i/twPDRF+MY+1Uc8B340YIlR7+u4k+mIMHTGPndP+PI5zAEoQ3B6d/uBqeHXv0pRn73T/ZBw28e4k/tcXqqHZwwf5cLw/fY/G3rfZ2D1mZPY8TV+HoZBw/t/fyf8fyrT2NouDOgq238uf25IfCz9U848qw1GKS1Ya82N/V+Pbi7zrw78mIcz7+oBbva9Q8/haNbne/l4bw9e0IL/rs8x8G3IazPJlzOJV4/Q4MyP4T3OQ72HBvHF3rAuWPT2E5h/AzwMZeE8nkLi4cx024qPIXtz/+C/zFc50OvxnH0sd8guodxCO1cEBERhcdXqp8j0mtaYLx013C0jkdLFy1B8aHkuzZlge3SRTxqnkY8edpPEzQ2Tw1o9Z7EcclfvUek1zCEu6gGXO+uKtQ3OlK51Mx56IVUFiIUlDpWxVfyU1DrcUipbsHnbuxXcleK2up20fIkQAjUW6ggDlEaMR1u9bmiWo+5HofYWYjR3TqaquKY7kerQ0byRhYCADG3Yp96xwvpLERUUVE7V/LbjHttAaViFVrgvIa51p8uq/X9GYF0Y9F2HD2Nr5e++ZC49AGW/tj6cx4JAOX/3otNV7UNg6enu/wJIugfmGFETpj/3c7v/tYqyv6Xk4VU7yC0gX3rXwM9F/u3SiqXMT09Hdgm1rtaK/gfe1jt76Zs0L7HZsdq8B++foxtPIUjxxxf1N2z/4wh/Ihty0pGu1XQxzBk04btz6t49PgpHH/xaXPZx4+xYbo58iMe/mcVjx77bGvo3I2vl3Hw5Jv/h208haFnnzIdbr3ftingar8CdPvrx9jRbxSEzdM4eLjO/PkRj/7rL+YVrls/mtrl+bzZPH3R/RwH3IaQPpvtOgKeSwZnfgjzcxzCdRZC3zzX6Xku2e9x8MLlmA0fw4ge9O+8ubX9uf+bFN7GIZxzQUREFCYfgf8ohsSTQLPuYrXHafyLCOxU7tqUrWO78i0gnrE+HtsXvV4h2vEIoBt63yp3bH7B6adeA7VzpXsnfXNa9ZZNMHUTlfUqEItD6KcNnWrVAFdr96JALVYhpN42pIzR+twsfmTos/dxECQZgrF87RYqdetNhlYd2j4AWWTWakhKVahv9BnArlfRRBzSdXcB/GZxEvMTMcwbA+fSIubWViEFtDeBdkPDrm8ex9dj37wqX/0NMi8b/ly9r238+0Lgb7UPIkgkIkC5HPAKaHOQN7gwa1j1DkIb2Dd/tMB/JJEIKmOVd4cgt//R4ad6F7Lz+Efs4Ckc/9VPO1JjdHoKQ6NP6cHpTj9i+/6P2ipDY9lDFHzYHV8v4+DV93j09Y848uIxw3dX7f12vn7sLji+Z2PucRxcX2c+9bwRF9R561I26DaE8tnszd9ccjDmh74/x3t2nXnn+2eAk27nZ4DHwQvjmB199mkcsdxg7VdA49DXuSAiIgqX7xz/O033OTh+aNYd6rA/HgghiqPw+ijqSRwRAAjv4rk5pzJ+6vUiDiEKILqIubVF5zLwl1rFms99V7+rtt1qpbkRpRltdb6+Ia95NbnXcdAD2XblU29DLNoE9WsLKBVlZFJxNIsz/tInddS3lI9rgXGpox0O+xpoDOl89H0GpJQMtZ+nDwAIqVUkJTj0zeP4+u6bT/dWoZwbhfzzUeDeXqz8D0EijUI6AQAoL09jOpCo/xYaD4EIhvHSx+chn7iPT1/eDfJGfOdzD6veQWgD+xaE8vI0phNpFAqF9r+Xw8uN1GHvc/sPlK3H+J/Pn9ICi8+ewPO/MzzmYVrx/E/a6shjHWVMnsIR7KYf2dn63xAbvl+8j4MXP3zzPXZePIahZx9qAajhpzF0zG7Vt13O6F3hp/nxOA6ur7MBaW8vx/yc47DGLNxr0p2DNj+ENWaDcC68C34uOZjjoN1sC5L3cdjfeZ2IiMg734H/I8JJAO4C90eFqG3ZIw7HA9Gs+/ii8i12mgCaxr0L9loVzTqAmjHXfDCcNs9t5/HfK7UFqGoWyXEZUBWIKS23vjk47XEcpLe1VD0OfWvfZDCKZZFMxdGsVyGkFiGpPvdOMLLk2G9tJpxFMnXLsrGuRWts+mwGpEVkUnFAnXF4Tx/XWb99G0gh5vgvL2N6uvUeBRQSy5juO1K6hb9+C8jnzkPGfXz68k3TUwSRE8PAvVUfTxaEVe8gtIF9C6JviXQB6YiCy9PTe/+kxEHI7R+2bx7iT799aDjQyrV9DCMvfq+nEPhf7DwGsGXMyd3dkeF/AnDY8gx7HwdPth7j4TfHMDL6NPDN9xh68RiO2Nxosmz226bnYg+dj3FwdZ2FJeDz5itAGNaYhXxNunLQ5oewxmwQzoU34cwlB28cAPi8odeNt3HY/3mdiIjIOx+pfrykvLmLv1eAI+Jpm7LWtDrBPAHQPRXRD12fVAgr/ZAXepoV6awhFY47zVq1y/+OQIjBIbXL3qusK4CUhRTTN/Vd7ww+exsHcVx26JuW818c70xPIyN5XbvhsHRhRstpf33R85j3tgn1whRU15e2dp66n9dp8PoAAB6RSURBVMseYllkcrK2Et8xqO//OjPW4a1vHrwwCfnEXuT534sc/w2Uyw0gkUAigBZrY2IN8gKj+NkLzmMWOfdrLP3xA8ydGw62XnkWhUIBs13vnrjDvtm0IaS+eaNt7tsol3t+FoIcM83+5vb/IaQVr/3Xa5drW09L8Ow/u/gO4z+Vw9EX43j+dz/Fv70YcNqKwHgZB3+2738PPHsMJ4b1TX3vdwaMnsLRYTikj+hup8eGj+6vnSDGYS/3fAjqvPWTpiasMQv/muxtb+aH4IQ1ZoNwLrzwP5d0F944hPZz85vvfe2P0n1O9TIOYZ0LIiKicPna3HdH/QzbwnmMdWzMO5S8huMdyee3S1e6lL2LqnFlfeUOtnEax6WooWQUxzPv2v8wFs5jLHPedFNBq/dbPFLtV+zvNOuAcB7HjdFOw02MHfWKtunwnPU9h5K3MWZqWziaxRlt49k1ayBazNWQSdnlrAeatU0gmoVkTOUTG9HztDsFelubvzrRA+evZ0359EWpzzzv6keGYLtiXY0PL+PgdPNAr6dm7beYW4TYDoxvQr0wgwpkJPvIXy+kVjF3I2vdf0F6G5IplVFrQ1+7fmmbDKu+V8+PQMplIdhs2tvJy3Xmvm/9GsZLH3+ApUujwL2b+PReQNUeJvdWoTwcxZsfTxryrWupXhIPV/GV7ZiN4iU9cBw5N2l/A8JXvQnIeoA3Isv939hg3zqE1TevtMB/bwGPGaCv4P8em65X+7ss69Y3/w/beBonTEHup3DiP070FyzxUO/RF+N4/j+OWQNw+tMNxhQzP3z9LR491lYeWr7DvGoO1v/w9WNsHzuGsY7c5EOvxnHccRPKp3Fcr8Oc575fWt7moUlzP4ee9Zdr3ss4+PLNY23Tx1+dsNnUF3AOJvW+dn7Y+l/g2DEcNwa3jAFYD9eOl3Hwcp2FxfN5O3YMYx1t1q5f/3t8hDVmoV+TLj5D4c8PwQprzMI/F0HyP5f0Eto4hPVzc+sxNr/+0TbVTrf29ppT3Y9DeOeCiIgoTD5T/dxFdf4KMGfOhb+jXkS1cg3HLWV/gb8nb5vz5jdvYmP+Zseq/LuoLt3EWOYanjMEr7dLF/FIumZ9aqByBRvN1zA2d97SNsc78ZUr+HPpXTyXvG36Ab2jXsSGWgdQx6OlX2Bb+gRjc7cRN762eRNVmwB18DahXoihklpFZq0j90x9AaWiw8vUGczngblcDaahLk5hqbiJZnESS7DWWcnHUBqvOQb/K/kpqDdWkFnLGo5qeentnx7QNoGVTGU7U/BoNyKkVOemvuYybsZBSGUhouq48ry1p4CU+giVIvT0NApKE8bAuILSG3Fkri9ibu2sTXtd9E1dgDq+2DFOrTKThvq0sRNzNSTXOm401BewNNErX75zG4TUIrR7U7K1buxeCxoP15nrvnlju4HvvZvIvHVA8/p302gElCJlC1+99Rv89dIHmPvj5O7hezeRueo0bvfx1RdbSJwbRuMLp9Qvfuoto1wGEgkE1D/2zSysvnmlb+7bs1zQY6at4N/5uupidZ2Xsl58j83/egr/9qs4nn9x9+j251U8moy7ePIxgHq/eYxHoycw9rvOaNv32PxtZ39/xMP//Au2X4xj7Hc/NRd//BibX3e+Hhj5nTm38c7XVWwiDvukBd9j+5sT2orLgHMtb39exaP/iHf083ts/vZ7H+fUyzj4oQWAjr/ovKnvD19XsQHr+29//hdsjv7UOUj0zUP86XPg+Vd/iucNh3e+ruppY7xckx7GwdN1FhaP5+3xY2zef9rmmulMwxFSG0L7bPrT+zMU9vwQtLDGrJ96tc2cd3/X7fd66833XNJTWOMb1s9NbSz+9M0x/NuvzPMj8D0e3f8nHIXNkz4951T34xDeuSAiIgrPP5w8efL/9rsRRHTYJJAupIGwNwBNpFFIR6BcvgxlzxOPu9fOj9532qDBFJFnMRtRAtjDYPAc5r65p++F0XC3T0UwY9bKk+0mqOKlLAXh6ItxjA0/Pli5oelQOfpiHGOj3+/BpsNERERERAeX7819iYjInYa75dIHVAKyDCiXD2Ng/DD3zbtGw81tq6DGTFuB97B3QY9lqX9P4/iLwKP/YtCfiIiIiIhokPnK8U9ERO41ymU0IjLSgW14Ohi0jVzTiCjLA/3EhR+HuW9eReQ05Ii+SXXXchyzw07b2PcEjn79bWAbKBMREREREVE4mOqHiEKgpfqxbO7Z6CfdjZ5uxBI7bwx8qh8Aelqi3REph50GiagfvF6JaIAx1Q8RERERUW8M/BMRERERERERERERHSJM9UNEREREREREREREdIgw8E9EREREREREREREdIgw8E9EREREREREREREdIgw8E80SCIyZtOWLXFDd+qV9/Dee+/hlVN7/tZEe0rM1TC3VkNSOhj1HmaDMGaD0IZBwHEYHDwX3g3CmA1CGwYBxyFcHF/vBmHMBqENXvC78uHHczE4DvO5GIS+DUIb3EikZyFHwqs/9MC/kFrF3I0shIDL0pPmJ4jF9rsNYUogXSigMCsDjcYev/cpiHrA/5QYdORfgMAPNA0MGaL+Q18clw9AvYdZmGM2AsHVzwueNw3HYXDwXHjHuWRvjUC6UUMmNWLzf0/SOOwHjq93nB+843flw+8JPhfSIubWauY/ocQfD+v84MUg9G0Q2uBOowHIswUUCuHcAPjH4KvcA9Ii5nK9T1wlH0NJ3YP2DILYFG5cn0LUeKy+gnz+PtTa3/arVQEZQ27tNSD/DvK14GqVch8iZ7zzV1/BGxdWYHoL6TWs5cZsX6/m30Fe9VnWKCJjdlZGpLyM6eWyhx4E5QEqD4BTp4AHlQcB1nsKr7z3CvDl+/iyGWC1FCox13FHvL6ApQsLMJ3CLnOwZd71UtZLG3xRUFEXIUpAZV3pu7bw6z3MwhozGcm1RSAfQ6nnz4v9Om8jkG6sQIp2+bwEds27cbCu30GYowBtsUomFUezOIWl4qaXLnRxsM7FYOBcwrlkF+cHMuP84H1+4HdlgHPJoaXOYH5ipv1PMVdDMvDFpQdhfjA7SNeZ5bMJdGn3YIyvGw3lMqYVIJEuID07C1y+DCXA9cAHM/Df8YFFLIvMdRmVNyahBhgYPjD0gLOafwcX2j80foLUjXfwunT/yRyTrrQbCVJ9BW9MtAL92nhdXxtGfuIzmH/2bliPSa9hLfchcpaAvpeyAJBAel+D/poHX76P9/ft3WkwaF9SxPoCliZaX2y1Xxoya3GUJmZQMZVXrMekRczlakhavsC6Leu1Dd5V8jHM91nHXtZ7mA3CmO13G8RxGVAV87/3wX6PgzuDMEe1jEAcjwMAhPGzEIqbgQVWD8a5GCyDMGb73QbOJZwfyN4gjNl+t8Hr/PBkf1fmXEJ7a//PxUG5zvSbmbUZzE8YgvixLDLXV5CBffB//8fXm/LyNJbTBaRn02hMLyOoCCFz/A+iRBqFQgHuUr2PIZcbQ734YUdQ+W8oXngHF4oHfbV/8GKpKUjYQN60uv9vKF74DCrG8HrqJ70rUVdRrAPSuP0Kf7dlI7KMBMpY3segPxEACKksRCgomVazbEK9MIMKZEi2j/V3UD+CWncZcLApG0gbiA6IpqqgKZ2F2D4iQ5SqaNb3sVEDbBDmqLbYWYjRKtT8AppRGeKhTkVIg45zCecHIiecH7zhXEJPnINynUlvQ4oqKOU7Vu7XFrA0EQvwSYX9V15eRhkJyD1y/kTkWRQKBcy6yA3U14p/L+kYWo+P7LK54+mjrJe2SrUpLBXRfuytxe7REOsjJM5t8FLWlfIyLiuzmE0XUEAZy13u9LSD2B4C/L1T3IwhtzaKWvEnSKWG22WKtSmk9NfVix+2byrEUpdwPbaCN2pTuN4qD8Bu9XssdQnXU3+zWVVvSOej7v7bNKy5D7HW/scWim9cRbHjaQZL3yxt+Amk8WFAXYH1iboNrKuvITc+iljxb3DzoES9tuWilFPZCBKJCBpK9zt5wplf4qKg4lpTwsUzzxj+5wG+fP9L2CXnOfVKx0a9393Btd/fMXw2tTQ85oz+3+HOtd/jjt0H+NQreE9q4poq4KK54o7X2NT7ynt4r+t72LUFwIM7uHbnDpp7lSYolkXmemeOvyoq+RmU1B7zg8Pc53rekRYx93oVS3+II2N6DLQK1eFJJrfzjrs26Hf61QWbeUt7RC7pYQVAs1Z1UaqzrPc2uOubvnLHVJ/zuGqsr2kWp6DGVvT381Gvj3McLMMKJodrNSkZrqHYCKTUCiTLRkj9XGcex8x1G2zqzdUwZ/sefq4HD498eznHtSqaUhaiNIOKCkA6C7GuQK1lIRm/dLsehy6P9bfmt3a7vYyDjOTaWTSLI5Ba383qC1o79TYZ5zPtO9ymzXViePRZ9VrvIMxRuwRJhlBXUFFvAfUsRGkEas34cyKsc9Fi9xoA6gKWigtohjqfcC45sHOJUxscf2+x+1lo/7l2Ow6cHwDOD5wfnOzf/BDWd1p+13CLc4m9MGN4ruz7/OBxTjUd79beXQflOhNiIwDcBPd9zGdd0sj3d535/QyVoSgNzMoyEo6xwt0bA5Gu5TQ+A/96B1TzYxZirmb/CFQ0i+S48XEpfbDWRqwnwEtZj4TUCuZS2smbb5282AgE04Vt93iXUxu8lPVGy/EUgTw7i3ShADikgonGhoH6BtzdtNeD6epnmJjYaB+Vch/apLgZQyqml9P3Dxhf/xAT+b/pqWsmIRUN5aXXtOD/xO4NBCn3IXJrP7EN0Pe2gXy7jZ03Bbr0rd6rDcOIRYH6un3AXl3fAHLDiALdA//SJFLRLRRVFzdcnMpGEkhEGiiXXSTvOvUKLgp3cO393eD9qVfewyvv/dI+8P7gS7z//gPDy9/DxfcEw42CB/jyfUNyH+EMfnnRMiWZPXMGF6U7uPb+l+02CGd+iYsXfwm022Cs15Dj33HrAK2McOca3jfdDTiFV94T8cyX2JO8tK2bjZV8DEuGa0zMrUKo28wPbuc+uJ13AESzyLyu3bFuj29qFZnrq0Cf807vNsQhRIHmuv0X1Mq6AuTiENDjfEhvQ4pWoaoufihbyvprQ+++KShZHgfstgLHcI7bKwq0LzzJKAw/oL3WCw/nOAwKSvmzmMvJEGMLHe+lbXxUyRuu31ocgtMXyTX4vNY9jpnrNhjr7fyFz2Yc/F4PLr/vuD/Ht1BRs5BiI4C6CXFcRnN9Cs1Y1uc4bEK9EEMzV0MytwixfXwEUi4LwXRNex8HKaaPgf4lX1yfwnx+U//C/DZES0DQDbf1DsIc1aIFBip/0ObfynoVkiUQEO65SK4tQjB+ztrHz0LIh/1zk3OJrzYMwlzi53ccm5+FUtR4jfn4Wega5wfOD5wf9mZ+COs7Lb9r9MS5pKfgY3ge7Pv84HFO9TwOB+c6a6oKmqms488G05h5aUNnGnlDu8T6AkqWdnn7HuX3M9Qol9GQE4hEANiGC7WbAwk5goai9EwJ5CvVj5jTO9vxmEUlPwW1LiPZecfE5g6VVjYOKdVHWc+qUN/oeAykttkRRLJ7vMu+DV7K+tOAcnka05cVNLql/6ltuVqdLuX0wHh+w3RczX+IYl1LGWQ6vm4st4X1bkFum41xtXqHkUq5SIfTJ/v0PTZtiA0jBqDWdcPjnyBmWiE1htzah1gz/skB+Qm7GxoeykYiiKCBhptNOywr9oEHX17Dne+ewZkzu2vlT73yCk59dwfXOiLtWtlTeOUVy7p6Dx7gy442NO+oeIBnIDzj+KLuTok4he9QedA57Tk/zRC4WBZJPejf+cO5kjf/cPQ89wFwM+9orHNJs7jQ/hLa4m/e6dGGmP4ltvNmhMkIBNPnQkZyrYY5458cUJpwWq3Qo6yvNrjom0ft8TWd402oF6ag9v1YtLtzHBr1FiqIQ5TMjym3+lzplYcUQKWoreYQLStfgKDPhb82BMv7Z97bOa6sK1o+TYxAiFVRsf0l0ds4tNt2Q3uCScyt2D8a65F5UyyntoZU7yDMUe22nIUY3f28NFXF8dHoUM6FdBai7Tj1/3Ssa5xLPBuEucTz7ziW9gb1s9A9zg8ecX7wgfODP+F8p+V3jVZbOJfsCjaG583+zw9e5lTP43CQrrPaAkrFKiyfoy6r9f0ZgXRj0XYcPY1vv5+hRgMNRLTAv1MR5TKmp6dx2cUuwD4C/9oF3ly/ZfMDdhOV9areyV70svoEG1zZLtTOu2SdWo933bI5EZ1t8FIW7bz9Tn+65vNvKLisn9BE2l0OJ6sxjEtAff2+zU2Cv0Fd3wKkUQQ7d+n16sH28LTS99y3Sd8TRBs2kJ94BxPGP3kgt/Yhblj2A3BfNtLtU+xKEw8q3wGCoF9npyCeAr6rPLD5bOplT4nWlDoBEASfn8zvmvgOz+DMxffwXl83JfwTJBmC5RcROz7nvp7zjos2xlo/6D3OOwG2wUpBaSKGeeOfPJBcqyFjyX/ppaxHgfat2/iGa/cch0mBWqxCSL1tuE61PjeLH7nrc63q/Mt1KNeZxzYEKqjvOxrbc6zeQiUqQ5TOQoxuents2nEcNvU8nVlk1mpISlWob+z1L2mDIJw5SpBkCMY5onYLlbr1FzJNCOeiXkUTcUjXw/hlxy3OJd4Mwlzi43ecPRuf/cD5ITycH7wZhPkhWHvznXZQcC4JXaAxvIDs6c9Ht3Oq93E4aNdZszipf3YM7ystYm5t1Ta1oR/aDQ27vnkc374/Q9oC4f5jhhrfOf6d7oR2v0NqI+ricSk/ZX3R71BHFzG3tuhcBkDTU1loqXqm+2haREZa1p7zsKSGaa1id1GN00r37ivg+xR1kTqnL1r6HkRfw9raa45logBq+tMRsdhPAMcnGP6GWq/Gqp8hr4652w+gW9lGw/7JHS+eEfAMDI9BOSTFdzq+r5p38PsvBS3of+oVvPee4f9snnIITd39D+/A5j5fPM47bulfXgT9MWB7Ln5RUGdQUmV3+S87ywbVhgB4ycl50LQek2znetU3dLJb+WTNX7hrr4LIg9CGcD/zes7YXBZQtS+Ydr/cex6H2gJKRRmZVBzN4szeBEnCNAhzFID2l367OTjlkIIg6HNRW8BSPq79EiF1tKPLXltB41zi3f7OJd6/PxyYn4WcH0z1cX7wbhDaMAjfNZ54nEtM9Q3CXOJOSL8f6wZifnA1p3odh4N8nRnS+ejpu6SUDLXPp5uF1CqSEhz65nF8B+wz5Dvw7zQhut90Qech4OaprC/6Dvc1Y56qIMr2I4F0IY0EWnn/zWHiem0LkNwH1p0C3rHYTwCEFPyvb7ncg8CvLdTqgFT7DBMdaYwcy8aGYddfaXwMqK+4aq+XsXcsG4nAMW2XW9818Z3hn4IgAJbUOa1V+YPzI7rtwZcwbjcACDjzy4s488wZvHLmAX5vu9twwDzcVAxs7vMlrHlHq1eMxWHXB3FcBurufjg1a1VAcjee5rLBtaFfgkMbDoXaAlQ1i+S4DKgKxJSWm7Hzy43TZlHtvJV7YBDaAIT/ma+sK4AkdzyGvsvXOOgpzJr1KoTUIiR1LzaQDtMgzFHQc/E6n4v2L2RGYZwLSz7SVu71LJKpW5ZNyELBucSz/Z1LvH9/ODg/Czk/mHB+8GQQ2gDs9/xAGs4lJoMwl7gSXlxuUOYHd3Oqx3E4LNdZa2z6bAakRWRScUCdcXhPH9dZX33rnubHKx+pfrSUGFqeuE5e0iR4eYx0rx459ZGqyMOjd14l0gUUCmkkDKl+OtWKK1AxhtctKWc6bWBdBaLjozYpb7qlyumHXq9hD4JwnizwkqqoW9lu6ZCstI2V3d3UsCvbaDTQ3wdawCnxGaDZ1D8XD1B5ADwjnrL5bOplH1T2Jm9+X5q48/truPOdc4mIPItCwW/aq453UxWXOfqCmvv6Eda8063ebo8gWwmxuOubtOaywbXBv/Dnda+CvNZbtF/+spBi+qZQll8C9fyl+5DyaLDasEefefUWKo7pxvyMg4zkde0XgqULM1rOyeuLe3ZNh/P00yDMUfov/bbnQjt/4njno7x7dS56517nXPKkzyVhpWP1hvODuW2cH8D5YSDmh4OHc4m5bYd5LunN/+9v3Z9sG4T5YVfvOdXbOBzk68xMO099PaUYyyKT027sde61YmxX/3ECD31rLRDusiGol8+br819K/kZVKL64Bg4bvAQzSKjbwJhLluFWuyjbAiaxRlt04o160Us5sz517yU9aS9ka9hc1/HwhvI5zcQTb2DnClw+ROkbnyItbXX2gFuNf8Z1OgUrnds4ivl3kEqqtXjW3QK129MmW4qaPVuoVg01Kvet7lR8ROkbrzWJWiv3bSQXu+oX9rtR634mbZB8Zq1Hilnzq/fLmtqb6sNG/hD0cXNidgUXnd7k8CpbLmMstvA/zNncPGXZ0yfi1OvXMSZZ77DnTu7ofwHX36JB8+cwcWOfPla2Qf48su9DPtrNyJOSR3tPrXbNuHML/FeR7+0Qmdw5hm7TX8BIAFZn9wisoxu22O4om8UY/cYX+fn2PPcF4Kw5p12vab5d3dzG9XNqo5YFpLbL8U2ZQNpQ5+0jck6N1Jr3Z0P/e07BHytt6gfGb6s2f0S6PTFpnUu9oLfNuhfVl/v+B4h+ctPujef+W6bPHkfB/MmgZtQL8zYXNMhUm+hAhmSaS7q/9rZ/znK6RctvX0163kK41wIqVXMdXxPBqCv3HLaCJFzCecSr7/jLHRpbx9N5PzQxvmB80PLIMwPBw7nkrZDP5e44Pf342ZtE4hq56AtNqL3ezDmh7aec6qXcTho11lrQ1+7fmnzpP84wQikXBaCzaa9nbxcZ/4+QwaRCCJ6nn973j5vPlP9aDmVxFzNmqtowmaw1Bks1bLIrGU76rD54eOlbCg2oV6IoZJaRWatI6RbX0Cp6LesNw3lsqvdmQEA6meYeGMLN65/iDVTG1bwxsSKIdi8gfzEBqTch+Zc+JZyPtRXkF8fw/W1KcPBDeQnPut4imAD+TeGceP6O1hLGbqQ/xDF199x3IBXzX+I4o13bOrf0Ov/G4oX3oGauoTrax9a22Y6F1rZWu5Dc32O4zCG3NqY5Wi9+CEuWG4SeClbRrkMpBMJoFy2vMbkuzv4siLi4ntnDAcf4Mv3v+xYwf8AX77/Pk698p41X/77vfLla5vs7r6DXf3ePPjyGu788qJNux9o9T5QcUd8peP/W2V+7/De2rglEghmjwToG8WoWWSu1zBn+h8F6nocAlo5Fz3OfaEIa97R6m3maub517FvMpJr1h/0zeKUzWNrbst6bYNf2kY7u9/xjD9jFJQmgOSaORdfszgDdbzXLxPd6vUj+Gtdo32RlVLOG+01i5NYgvUaq+RjKI3XAvyF3HnM/Lahkp+CemPF5nuE4nAuel0P+/uZdz8OrRtUCkqmtikovRFH5voi5tbOdrkmg7p+W++3gjnDz/lKfgrq6yt9rCDe3zlKSGUhouq4SqeVf1VKfYRKEeGdC3UB6vhix/XdKjPpUB/nEs4lgLfvD04/C6dQwkqPJ2x7jAPnB84POs4PgzQ/dAr6O23Q9XIueXLmEjd8/n6szmA+D8zlzDGA1jkZjPlht4+95lS343DwrrPdOdLyGXI1Tzq3QUgt6gsa3HyWPVxnvj5DuxKJBFBehnNI2Nvn7R9Onjz5fz3KEHUVS13C9fENvHGhz5sHT6KIjNlZGY3laSw7xP6FM7/ERbGydxvdHhAReRazEQXTTgNHFCgtqCqu232RDxevdSIKAucSInLC+YGIgsC5hKhPLmKEu0Xdfd58pfohooA0FChlIJFO7+njcAdfArIMKAq/UNBeiUOIhpVTtBte60QUBM4lROSE8wMRBYFzCVF/EkjPyoiUl3sG/b183hj4J9pn5eVpLJcTSBcKSDP635O2iUkaEaXbo09EftnlKtRzOdYXoO7hpmi81okoCJxLiMgJ5wciCgLnEqI+JdIoFNJIlJd7ruD3+nljqh/qG1P9BCSRRiGt5fIyftCZ6odoD0mLmLPbpEidwfwebN5MRERERERERE+GRFpbBFx2kd7HDwb+iYiIiIiIiIiIiIgOEab6ISIiIiIiIiIiIiI6RBj4JyIiIiIiIiIiIiI6RBj4JyIiIiIiIiIiIiI6RBj4JyIiIiIiIiIiIiI6RBj4JyIiIiIiIiIiIiI6RBj4JyIiIiIiIiIiIiI6RBj4JyIiIiIiIiIiIiI6RBj4JyIiIiIiIiIiIiI6RBj4JyIiIiIiIiIiIiL6/+3YgQwAAADAIH/re3yF0Yj4BwAAAACAEfEPAAAAAAAj4h8AAAAAAEbEPwAAAAAAjIh/AAAAAAAYEf8AAAAAADAi/gEAAAAAYET8AwAAAADAiPgHAAAAAIAR8Q8AAAAAACPiHwAAAAAARsQ/AAAAAACMiH8AAAAAABgR/wAAAAAAMCL+AQAAAABgJDZsYnK7u4DKAAAAAElFTkSuQmCC;" vertex="1" parent="1">
          <mxGeometry x="380" y="284.97" width="430" height="75.12" as="geometry" />
        </mxCell>
      </root>
    </mxGraphModel>
  </diagram>
</mxfile>
